<?xml version="1.0" encoding="UTF-8"?>
<svg id="Layer_2" data-name="Layer 2" xmlns="http://www.w3.org/2000/svg" viewBox="0 0 1149.66 513.09">
  <defs>
    <style>
      .cls-1 {
        fill: #4d4d4d;
      }

      .cls-2 {
        fill: #851214;
      }
    </style>
  </defs>
  <g id="Layer_1-2" data-name="Layer 1">
    <g>
      <path class="cls-1" d="M307.96,117.95c1.71-.43,2.57-1.61,2.57-3.53.64,0,.96-.32.96-.96h1.93c.85.22,1.34.59,1.45,1.13.11.54.27,1.13.48,1.77,1.29,0,2.3.16,3.05.48.75.32,1.66.7,2.73,1.13.85-.21,1.82-.27,2.89-.16,1.07.11,2.19.22,3.37.32,1.18.11,2.36.11,3.53,0,1.18-.11,2.3-.37,3.38-.8,3.21,0,6.37-.05,9.48-.16,3.1-.11,6.27-.27,9.48-.48.64,0,1.17.16,1.61.48.43.32,1.07.59,1.93.8.64-.21,1.45-.37,2.41-.48.96-.11,1.98-.16,3.05-.16.43.86.8,1.61,1.13,2.25.32.64.69,1.18,1.13,1.61.21.43.27.64.16.64s-.27.11-.48.32c0,.22-.11.54-.32.96-.22.43-.43.75-.64.96.21,1.5.32,2.84.32,4.02s-.43,2.3-1.29,3.37c.21.43.48.75.8.96.32.22.48.64.48,1.29.21.64.16,1.07-.16,1.29-.32.22-.38.64-.16,1.29-1.07.43-2.31.54-3.7.32-1.4-.21-2.52-.53-3.37-.96-.43,0-.86.16-1.29.48-.43.32-.86.48-1.29.48-1.07.22-1.93.27-2.57.16-.64-.11-1.4-.27-2.25-.48-.22.22-.43.11-.64-.32-.22-.21-.54-.37-.96-.48-.43-.11-.86-.16-1.29-.16-1.29-.21-2.14.11-2.57.96h-3.53c-.43-.21-.59-.43-.48-.64.11-.21.27-.37.48-.48.21-.11.37-.27.48-.48.11-.21.05-.43-.16-.64-1.5-.64-2.36-.43-2.57.64-.43-.21-.86-.43-1.29-.64-.43-.21-.96-.21-1.61,0-1.07,0-1.93.16-2.57.48-.64.32-1.29.16-1.93-.48-.64.22-1.13.48-1.45.8-.32.32-.91.48-1.77.48-.43,0-.7.16-.8.48-.11.32-.38.59-.8.8h-2.57c-.86.22-1.4.54-1.61.96-.22.43-.75.64-1.61.64-.43.22-.86.48-1.29.8-.43.32-.75.7-.96,1.13v2.09c0,.32.11.91.32,1.77-.22.64,0,.96.64.96s.96.32.96.96c.21,1.5.16,2.84-.16,4.02-.32,1.18-.38,2.41-.16,3.7,0,.86.21,1.5.64,1.93.43.43.75.96.96,1.61v7.39c-.22.64-.11,1.07.32,1.29.43.22.64.64.64,1.29.21.64.11,1.02-.32,1.12-.43.11-.64.38-.64.8,0,.86-.22,1.5-.64,1.93.21,1.5.37,2.95.48,4.34.11,1.4.16,2.95.16,4.66-.22.86-.16,1.34.16,1.45.32.11.48.48.48,1.12-.64.43-.91,1.13-.8,2.09.11.96-.06,1.77-.48,2.41.21.86.48,1.45.8,1.77s.69.7,1.12,1.13c.21.86.05,1.4-.48,1.61-.54.22-.8.64-.8,1.29,0,1.72.05,3.37.16,4.98.11,1.61.48,2.84,1.12,3.7.21.86.27,1.77.16,2.73-.11.96.16,1.66.8,2.09-.43,1.07-.7,2.25-.8,3.53-.11,1.29-.16,2.57-.16,3.86.21.64.48,1.07.8,1.29.32.22.48.64.48,1.29,0,1.29.05,2.52.16,3.7.11,1.18.59,2.09,1.45,2.73,0,2.79-.06,5.2-.16,7.23-.11,2.04-.06,4.34.16,6.91.21.86.05,1.34-.48,1.45-.54.11-.8.59-.8,1.45.43,1.07.59,2.14.48,3.21-.11,1.07-.27,2.14-.48,3.21,0,.64.21,1.02.64,1.13.43.11.75.38.96.8-.22,1.29.21,2.36,1.29,3.21.21,1.5.27,3.05.16,4.66-.11,1.61-.16,3.05-.16,4.34-.22,1.29-.22,2.47,0,3.53.21,1.07.21,2.04,0,2.89-.86,0-1.5.11-1.93.32-.43.22-.8.54-1.13.96-.32.43-.64.86-.96,1.29-.32.43-.8.75-1.45.96-.22.43-.32.91-.32,1.45s-.32.91-.96,1.13c-.22.22-.32.7-.32,1.45v2.09c0,.22.11.38.32.48.21.11.43.11.64,0,.21-.11.43-.16.64-.16s.43.11.64.32c.21,1.07.05,1.61-.48,1.61s-.7.54-.48,1.61c-.64.22-1.07.54-1.29.96-.22.43-.64.75-1.29.96,0,.43-.11.86-.32,1.29-.22.43-.43.86-.64,1.29-.43.22-.8.43-1.13.64-.32.22-.7.22-1.13,0-.64.22-1.02.48-1.12.8-.11.32-.27.59-.48.8-.64,0-1.02.16-1.13.48-.11.32-.27.59-.48.8-1.29.22-2.63.32-4.02.32s-2.73-.11-4.02-.32c-.43-.43-.8-.85-1.13-1.29-.32-.43-.91-.75-1.77-.96,0-1.07-.22-1.87-.64-2.41-.43-.53-.86-1.13-1.29-1.77-.22-.64-.22-1.39,0-2.25.21-.85.11-1.39-.32-1.61.21-.21.32-.43.32-.64v-.64c.21-.21.37-.37.48-.48.11-.11.27-.16.48-.16.21-.43.37-.8.48-1.13.11-.32.27-.69.48-1.13-.22-.21-.22-.64,0-1.28.21-.64.11-1.18-.32-1.61-.22-.21-.22-.75,0-1.61.21-.85.32-1.71.32-2.57.21-1.5.16-3-.16-4.5-.32-1.5-.27-3,.16-4.5,0-1.07-.27-1.93-.8-2.57-.54-.64-.8-1.61-.8-2.89-.22-.64-.11-1.12.32-1.45.43-.32.75-.8.96-1.45v-22.18c-.22-.85.21-1.18,1.29-.96.21-.21.32-.53.32-.96s.11-.64.32-.64v-2.25c0-.64-.11-1.29-.32-1.93-.22-.64-.64-1.07-1.29-1.29.21-.43.21-.64,0-.64s-.32-.11-.32-.32c.43-.21.53-.43.32-.64-.22,0-.32-.37-.32-1.13v-7.23c-.22-1.93-.22-4.23,0-6.91.21-2.68.21-5.41,0-8.2.21-.21.37-.48.48-.8.11-.32.37-.59.8-.8.21-.64.11-1.13-.32-1.45-.43-.32-.75-.8-.96-1.45.43-2.14.43-4.5,0-7.07-.43-2.57-.43-5.03,0-7.39-.22-.85.21-1.18,1.29-.96-.22-.43-.22-.75,0-.96s.32-.43.32-.64c0-.64-.27-1.01-.8-1.13-.54-.11-.8-.48-.8-1.13,0-1.07.11-1.93.32-2.57.21-.64.43-1.39.64-2.25-.22-.43-.48-.75-.8-.96-.32-.21-.64-.48-.96-.8-.32-.32-.59-.64-.8-.96-.22-.32-.32-.8-.32-1.45,0-.85.21-1.39.64-1.61.64.22.91.11.8-.32-.11-.43.05-.64.48-.64v-14.14c-.22-.85-.43-1.71-.64-2.57-.22-.85-.22-1.93,0-3.21-.22-.21-.38-.43-.48-.64-.11-.21-.27-.43-.48-.64-1.29-.64-2.84-1.01-4.66-1.13-1.82-.11-3.59-.05-5.3.16-.43.22-.75.54-.96.96-.22.43-.54.64-.96.64-.22,0-.38.11-.48.32-.11.22-.22.43-.32.64-.11.22-.22.38-.32.48s-.38.16-.8.16c-.86.22-1.39,0-1.61-.64-.21-.64-.64-1.07-1.29-1.29v-4.18c-1.29-2.35-1.82-5.46-1.61-9.32-.21-.43-.16-.69.16-.8.32-.11.59-.37.8-.8.22-.21.32-.53.32-.96s.11-.75.32-.96c.22-.43.48-.96.8-1.61.32-.64.59-1.29.8-1.93.64-.21,1.17-.64,1.61-1.29.43-.64,1.07-1.07,1.93-1.29.43-.43.75-.48.96-.16.21.32.43.59.64.8,0,.64.27.91.8.8.53-.11.8.06.8.48,1.07.22,1.93.22,2.57,0,.64-.21,1.5-.32,2.57-.32.85,0,1.5.16,1.93.48.43.32,1.18.38,2.25.16.43,0,.64-.37.64-1.12v-2.09c.21-.43.37-.85.48-1.29.11-.43.05-.96-.16-1.61,0-.64.11-1.07.32-1.29s.43-.53.64-.96c-.64-.43-.96-1.07-.96-1.93s-.22-1.5-.64-1.93c-.22-.85-.48-1.5-.8-1.93-.32-.43-.48-1.07-.48-1.93-.22-.64-.48-1.13-.8-1.45-.32-.32-.48-.8-.48-1.45-1.07-.21-1.93-.64-2.57-1.29s-1.5-1.07-2.57-1.29c-.64-1.29-1.5-2.25-2.57-2.89-1.07-.64-1.93-1.61-2.57-2.89,0-.85.16-1.55.48-2.09.32-.53.37-1.23.16-2.09.43-.64.8-1.29,1.13-1.93.32-.64.91-1.07,1.77-1.29,0-.85.05-1.55.16-2.09.11-.53.27-1.13.48-1.77.21-.21.37-.43.48-.64.11-.21.16-.48.16-.8s.05-.59.16-.8c.11-.21.37-.32.8-.32,0-.64.16-1.07.48-1.29.32-.21.37-.75.16-1.61.85-.43,1.45-1.13,1.77-2.09.32-.96,1.01-1.66,2.09-2.09,0-.64.05-1.12.16-1.45.11-.32.27-.69.48-1.13.43-.21.69-.43.8-.64.11-.21.48-.32,1.13-.32,0-.85.53-1.18,1.61-.96.43-1.07.64-1.82.64-2.25,1.5-.64,2.78-1.71,3.86-3.21.85-.43,1.55-.91,2.09-1.45s1.01-1.13,1.45-1.77c.64.22,1.01.22,1.12,0,.11-.21.27-.43.48-.64.21-.21.43-.43.64-.64.21-.21.64-.21,1.29,0,.21-.64.32-1.18.32-1.61,1.07,0,1.61-.43,1.61-1.29,1.5-.21,2.94-.37,4.34-.48,1.39-.11,2.62-.59,3.7-1.45.21-.21.43-.37.64-.48.21-.11.32-.27.32-.48.21-.21.43-.37.64-.48.21-.11.32-.37.32-.8.85,0,1.71-.16,2.57-.48.85-.32,1.71-.27,2.57.16.43-.21.85-.53,1.29-.96.43-.43,1.07-.53,1.93-.32.21,0,.43-.11.64-.32.21-.21.43-.32.64-.32.21-.21.32-.43.32-.64.21-.21.37-.27.48-.16.11.11.27.16.48.16.85-.64,1.39-1.18,1.61-1.61h6.75c.64,0,1.01-.21,1.13-.64.11-.43.37-.75.8-.96h3.21c.85-.21,1.71-.64,2.57-1.29,1.29-.21,2.35-.27,3.21-.16.85.11,1.93.16,3.21.16.43,0,.69.11.8.32.11.22.27.38.48.48.21.11.43.22.64.32.21.11.53.16.96.16.21.22.53.43.96.64.43.22.75.54.96.96.43-.43.75-.8.96-1.12.21-.32.64-.48,1.29-.48,1.5,0,2.68.54,3.54,1.61.43-.21.64-.64.64-1.29h.96c.21,0,.43-.11.64-.32,1.5.22,2.89.22,4.18,0,1.29-.21,2.35-.64,3.21-1.29.64,0,1.17.11,1.61.32.43.22.85.54,1.29.96h1.77c.53,0,.91.11,1.13.32.64.22,1.07.64,1.29,1.29.21.64.75.96,1.61.96s1.45-.16,1.77-.48.8-.48,1.45-.48c3.64,0,6.53.32,8.68.96.85.22,1.39.16,1.61-.16.21-.32.64-.48,1.29-.48.85.22,1.45.48,1.77.8s.59.8.8,1.45c.85-.21,1.45-.21,1.77,0,.32.22.69.43,1.13.64,0,.43.11.75.32.96.21,1.07.11,1.88-.32,2.41-.43.54-.75,1.12-.96,1.77-.86,0-1.4-.27-1.61-.8-.22-.53-.54-1.01-.96-1.45-1.07-.21-1.88-.11-2.41.32-.54.43-1.02.86-1.45,1.29,0,.43.16.75.48.96.32.22.59.43.8.64,0,.43.27.64.8.64s.59.32.16.96c-.43,0-.86.06-1.29.16-.43.11-.86.06-1.29-.16-.64,0-.96-.05-.96-.16s-.11-.27-.32-.48c-.43-.21-1.02-.48-1.77-.8-.75-.32-1.02-1.13-.8-2.41,0-.43.11-.69.32-.8.21-.11.48-.21.8-.32.32-.11.64-.21.96-.32.32-.11.48-.37.48-.8s-.16-.69-.48-.8c-.32-.11-.59-.11-.8,0-.22.11-.54.22-.96.32-.43.11-.86.16-1.29.16-.86-.21-1.56-.64-2.09-1.29-.54-.64-1.45-.75-2.73-.32.21.43.21.91,0,1.45-.22.54-.11.8.32.8.21.22.53.32.96.32s.75.22.96.64c0,.64-.27.96-.8.96s-.8.32-.8.96c-.64-.21-.96-.11-.96.32h-4.18c-.43-.43-.8-.91-1.13-1.45-.32-.53-.59-1.13-.8-1.77-.64.64-1.5,1.02-2.57,1.13-1.07.11-1.93.38-2.57.8-.43.22-.7.48-.8.8-.11.32-.38.38-.8.16-.86-.43-1.77-.8-2.73-1.13-.96-.32-2.09-.37-3.37-.16-.86.22-1.45.48-1.77.8-.32.32-.8.59-1.45.8h-5.78c-.43,0-.64.11-.64.32s-.11.32-.32.32c-.22.22-.43.32-.64.32s-.32.22-.32.64c-.86,0-1.72-.05-2.57-.16-.86-.11-1.5-.05-1.93.16-.64-.21-1.02-.11-1.13.32-.11.43-.27.86-.48,1.29-.86-.21-1.45-.21-1.77,0-.32.22-.8.32-1.45.32-.43.22-.8.54-1.13.96-.32.43-.7.86-1.13,1.29-.86.22-1.61.54-2.25.96-.64.43-1.5.64-2.57.64-1.07,1.5-2.79,2.47-5.14,2.89-.22.43-.43.8-.64,1.13-.22.32-.54.59-.96.8,0,.22-.06.38-.16.48l-.48.48c-.22.22-.32.38-.32.48v.48c-.22.22-.54.32-.96.32s-.54.32-.32.96c-.64,0-1.18.06-1.61.16-.43.11-.96.27-1.61.48.21.86.37,1.61.48,2.25.11.64.05,1.29-.16,1.93-.43,2.14-1.29,3.65-2.57,4.5.21,1.07.05,1.82-.48,2.25-.54.43-.91,1.07-1.13,1.93-.43,0-.75.22-.96.64-.22.43-.64.75-1.29.96,0,.64-.11,1.18-.32,1.61-.22.43-.32.96-.32,1.61-.43,0-.7.16-.8.48-.11.32-.27.64-.48.96-.22.32-.43.59-.64.8-.22.22-.54.32-.96.32v2.57c-.22.43-.64.54-1.29.32,0,.86-.16,1.56-.48,2.09-.32.54-.7,1.02-1.13,1.45.43.86.48,1.56.16,2.09-.32.54-.38,1.24-.16,2.09-.43.43-.8.91-1.13,1.45-.32.54-.48,1.24-.48,2.09-.64.22-1.02.64-1.12,1.29-.11.64-.27,1.29-.48,1.93-.64.22-1.02.7-1.13,1.45-.11.75-.48,1.24-1.13,1.45v1.93c-.64.64-1.18,1.18-1.61,1.61-.43.43-.54,1.18-.32,2.25-.43.22-.91.43-1.45.64-.54.22-1.02.48-1.45.8-.43.32-.7.7-.8,1.13-.11.43-.06,1.07.16,1.93ZM283.54,125.02c-.21,2.14.43,3.21,1.93,3.21-.22-1.29-.06-2.09.48-2.41.53-.32.8-.91.8-1.77-.43,0-.75.06-.96.16-.22.11-.43.27-.64.48-.22.22-.43.38-.64.48-.22.11-.54.06-.96-.16ZM303.78,256.78h.64c0-.21.05-.37.16-.48.11-.11.16-.27.16-.48-.22,0-.38-.05-.48-.16-.11-.11-.27-.16-.48-.16v1.29ZM305.71,286.67c.21.22.8.32,1.77.32s1.45-.21,1.45-.64c1.28-.21,1.82-1.07,1.61-2.57-.86-.43-1.93-.43-3.21,0-1.29.43-1.82,1.4-1.61,2.89ZM318.24,221.43c.21-.21.48-.43.8-.64.32-.21.59-.43.8-.64.21-.21.43-.48.64-.8.21-.32.32-.69.32-1.13-.22-.21-.43-.37-.64-.48-.22-.11-.54-.16-.96-.16-.22.64-.59,1.29-1.12,1.93-.54.64-.48,1.29.16,1.93ZM340.74,57.85c.85.22,1.45.11,1.77-.32.32-.43.59-.85.8-1.29-1.72-.21-2.57.32-2.57,1.61ZM353.28,133.05c0,.22.27.27.8.16.53-.11.69-.27.48-.48-.22-.43-.54-.48-.96-.16-.43.32-.54.48-.32.48ZM376.41,44.99c.21-.21.53-.27.96-.16.43.11.53-.05.32-.48-.64,0-1.07.22-1.29.64Z"/>
      <path class="cls-1" d="M503.36,87.09c.43.22.69.48.8.8.11.32.27.59.48.8.21.43.53.7.96.8.43.11.85.27,1.29.48.21,1.07.16,1.93-.16,2.57-.32.64-.7,1.29-1.12,1.93.43,0,.59.32.48.96-.11.64.16.86.8.64.43,0,.69.16.8.48.11.32.37.59.8.8-.22,1.07-.22,1.98,0,2.73.21.75.53,1.45.96,2.09,0,1.29.05,2.63.16,4.02.11,1.4-.06,2.63-.48,3.7.43.64,1.13.96,2.09.96s1.87.11,2.73.32c.21.22.59.38,1.13.48.53.11.91.38,1.13.8,1.29-.43,2.57-.48,3.86-.16,1.29.32,2.78.38,4.5.16.43,0,.8.16,1.12.48s.69.59,1.13.8h8.03c.64-.21,1.13-.48,1.45-.8s.8-.59,1.45-.8c.85,0,1.61.16,2.25.48.64.32,1.29.7,1.93,1.13.85-.21,1.61-.21,2.25,0,.64.22,1.18.54,1.61.96.43.64.48,1.24.16,1.77-.32.54-.27,1.13.16,1.77.43,0,.75-.05.96-.16.21-.11.43-.21.64-.32.21-.11.48-.21.8-.32.32-.11.69-.05,1.13.16-.22.64-.32,1.18-.32,1.61s.11.86.32,1.29c.21.43.37.86.48,1.29.11.43.05.96-.16,1.61-.64-.21-1.34-.53-2.09-.96-.75-.43-1.56-.32-2.41.32-.64.22-.75.43-.32.64.43.22.53.64.32,1.29-.43,0-.86.11-1.29.32-.43.22-.64.75-.64,1.61-.22.22-.27.43-.16.64.11.22.27.43.48.64.21.22.37.48.48.8.11.32.05.8-.16,1.45,0,.43.32.64.96.64s.96.22.96.64c.21.64.21,1.12,0,1.45-.22.32-.32.8-.32,1.45,0,.43.16.8.48,1.13.32.32.37.91.16,1.77-.86.43-1.93.64-3.21.64s-2.47.11-3.53.32c-.86,0-1.4.16-1.61.48-.22.32-.75.48-1.61.48-.86-.21-1.61-.53-2.25-.96-.64-.43-1.28-.96-1.93-1.61h-5.46c-1.29.64-2.73,1.07-4.34,1.29-1.61.22-3.05.54-4.34.96-.64.43-1.13,1.02-1.45,1.77-.32.75-.8,1.34-1.45,1.77-.22.86-.59,1.5-1.12,1.93-.54.43-.91,1.07-1.13,1.93.21.43.37.96.48,1.61.11.64.27,1.29.48,1.93-.22.86-.32,1.72-.32,2.57v3.21c0,.64-.27,1.12-.8,1.45-.54.32-.59.91-.16,1.77-.43.64-.91,1.02-1.45,1.12-.54.11-.8.59-.8,1.45-.22.22-.32.43-.32.64s.11.43.32.64c.21.22.43.43.64.64.21.22.32.43.32.64.21.64.21,1.07,0,1.29s-.32.54-.32.96c.85,1.5,1.23,3.11,1.13,4.82-.11,1.72-.38,3.54-.8,5.46-.22.22-.59.38-1.12.48-.54.11-1.02.27-1.45.48,0,.86-.11,1.66-.32,2.41-.22.75-.22,1.77,0,3.05.21.43.37.91.48,1.45.11.54.59.7,1.45.48-.22,1.07-.32,2.04-.32,2.89v3.21c.43,1.07.8,2.41,1.13,4.02.32,1.61.05,2.95-.8,4.02.21.64.37,1.18.48,1.61.11.43.27.96.48,1.61,0,1.5-.06,2.95-.16,4.34-.11,1.4-.27,2.73-.48,4.02.21.43.27,1.02.16,1.77-.11.75.05,1.24.48,1.45-.22.43-.54.8-.96,1.13-.43.32-.75.7-.96,1.13.21.86.21,1.45,0,1.77-.22.32-.43.59-.64.8,0,.86.21,1.5.64,1.93.43.43.64,1.07.64,1.93.21.64.48,1.13.8,1.45s.48.8.48,1.45c.21.64.16,1.13-.16,1.45-.32.32-.59.7-.8,1.13,0,.86-.11,1.5-.32,1.93-.22.43-.43.86-.64,1.29.43,1.07.53,2.14.32,3.21-.22,1.07-.43,2.14-.64,3.21-.22-.43-.59-.64-1.13-.64h-1.77c0,.64.27,1.02.8,1.12.53.11,1.01.38,1.45.8,0,.86.27,1.56.8,2.09.53.54,1.13,1.13,1.77,1.77.43,1.5.75,3.05.96,4.66.21,1.61.43,3.37.64,5.3-.22.64-.43,1.18-.64,1.61-.22.43-.43.86-.64,1.29.21,1.5.27,2.95.16,4.34-.11,1.4-.48,2.52-1.13,3.37.43.86.75,1.66.96,2.41.21.75.64,1.45,1.29,2.09-.22,2.36-.22,4.77,0,7.23.21,2.47,0,4.98-.64,7.55-.64.43-1.34,1.13-2.09,2.09-.75.96-1.98,1.34-3.7,1.13-.43.22-.64.16-.64-.16s-.11-.59-.32-.8c-.43,0-.75-.11-.96-.32-.22-.21-.64-.21-1.29,0-.22-.21-.32-.75-.32-1.61-.86,0-1.61-.11-2.25-.32-.43-1.29-1.02-2.25-1.77-2.89-.75-.64-1.24-1.71-1.45-3.21-.64-.43-1.24-.85-1.77-1.29-.54-.43-1.02-.96-1.45-1.61v-4.82c-.43-.43-.86-.85-1.29-1.29-.43-.43-.86-.75-1.29-.96-.22-1.07-.43-2.3-.64-3.7-.22-1.39-.64-2.52-1.29-3.37,0-1.5-.16-2.84-.48-4.02-.32-1.18-.48-2.62-.48-4.34,0-.43-.11-.8-.32-1.12-.22-.32-.43-.69-.64-1.13,0-.43-.06-.91-.16-1.45-.11-.53.05-.8.48-.8-.22-.64-.43-1.29-.64-1.93-.22-.64-.32-1.39-.32-2.25,0-.64.21-1.01.64-1.13.43-.11.64-.37.64-.8,0-1.29.16-2.35.48-3.21.32-.85.69-1.71,1.12-2.57-.22-1.71-.27-3.21-.16-4.5.11-1.29.27-2.78.48-4.5-.43-1.5-.64-3.37-.64-5.62s.53-4.02,1.61-5.3c0-.43-.06-.96-.16-1.61-.11-.64-.06-1.18.16-1.61,0-.43.05-.75.16-.96.11-.21.16-.43.16-.64,0-.43-.06-.75-.16-.96-.11-.21-.16-.43-.16-.64,0-.64.11-1.34.32-2.09.21-.75.32-1.45.32-2.09v-2.89c0-.21.11-.53.32-.96.21-.43.32-.85.32-1.29.21-.64.27-1.5.16-2.57-.11-1.07.16-2.03.8-2.89,0-.64-.16-1.13-.48-1.45-.32-.32-.48-.8-.48-1.45.43,0,.64-.05.64-.16,0-.11-.06-.32-.16-.64-.11-.32-.16-.53-.16-.64,0-.11.21-.16.64-.16,0-.43.21-.96.64-1.61v-4.5c0-.64-.22-1.13-.64-1.45-.43-.32-.75-.8-.96-1.45-.22-1.93-.27-3.53-.16-4.82.11-1.29.05-2.78-.16-4.5-.43-1.29-.96-2.46-1.61-3.53-.64-1.07-.96-2.36-.96-3.86-.22-.64-.54-1.18-.96-1.61-.43-.43-.75-.85-.96-1.29-.22-1.07-.48-1.98-.8-2.73-.32-.75-.7-1.45-1.13-2.09v-2.57c-.43-1.07-1.29-1.93-2.57-2.57,0-.43-.16-.69-.48-.8-.32-.11-.38-.48-.16-1.13-.22-.43-.54-.75-.96-.96-.43-.21-.64-.64-.64-1.29-.64-.43-1.18-1.17-1.61-2.25h-2.57c-.64,0-1.02-.27-1.13-.8-.11-.53-.38-.91-.8-1.13-.86,0-1.56-.16-2.09-.48-.54-.32-1.24-.59-2.09-.8,0-.21-.06-.32-.16-.32h-.48c-.22-.85-.64-1.39-1.29-1.61-.64-.21-1.07-.53-1.29-.96-.43,0-.8-.05-1.13-.16-.32-.11-.7-.27-1.13-.48-.22,0-.43-.21-.64-.64h-1.29c-.43-.21-.96-.53-1.61-.96-.64-.43-1.4-.53-2.25-.32,0-.43-.27-.64-.8-.64s-.91-.11-1.13-.32c-1.72,0-3.43-.21-5.14-.64-.86.43-1.77.86-2.73,1.29-.96.43-2.2.54-3.7.32-.64-.21-1.18-.53-1.61-.96-.43-.43-1.07-.75-1.93-.96-.22-.43-.48-.91-.8-1.45-.32-.53-.8-.91-1.45-1.12-.86.43-1.13,1.12-.8,2.09.32.96.48,1.77.48,2.41-.43.22-.7.54-.8.96-.11.43-.48.54-1.13.32,0,1.07-.54,1.61-1.61,1.61,0,.64-.16,1.18-.48,1.61-.32.43-.7.86-1.13,1.29-.22,1.72-.06,3,.48,3.86.53.86.91,1.93,1.13,3.21,1.29,1.29,2.46,2.57,3.53,3.86,0,1.29-.32,2.14-.96,2.57.43.64.85,1.13,1.29,1.45.43.32.85.7,1.29,1.13.64.22,1.12.11,1.45-.32.32-.43.59-.75.8-.96.43-.21.8-.43,1.13-.64.32-.21.59-.53.8-.96h2.25c.64.22,1.12.48,1.45.8.32.32.8.48,1.45.48.21.22.32.75.32,1.61,1.07-.21,1.71.22,1.93,1.29.64,0,1.12.16,1.45.48s.59.7.8,1.13c.64-.21,1.07-.16,1.29.16.21.32.53.38.96.16-.22,1.72-.11,3.05.32,4.02.43.96,1.5,1.34,3.21,1.13v2.57c.43.43,1.18.54,2.25.32.21.22.32.48.32.8s.11.59.32.8c0,.22.16.38.48.48.32.11.48.27.48.48.21.43.37,1.02.48,1.77.11.75.48,1.45,1.12,2.09-.22,1.5-.22,2.68,0,3.54.21.86.21,1.93,0,3.21-.22,1.07-.06,1.66.48,1.77.53.11.69.59.48,1.45,0,.43-.16.7-.48.8-.32.11-.48.48-.48,1.13.21,2.14.16,4.07-.16,5.78-.32,1.72-1.13,3-2.41,3.86,0,.64-.11,1.07-.32,1.29-.22.22-.32.54-.32.96-.64,0-1.18.16-1.61.48-.43.32-.96.7-1.61,1.12-.64,0-1.12-.16-1.45-.48-.32-.32-.8-.59-1.45-.8-.43.22-.64.43-.64.64s.11.48.32.8c.21.32.32.64.32.96s-.22.59-.64.8c0,.86-.54,1.18-1.61.96-.22.64-.54,1.13-.96,1.45-.43.32-.75.8-.96,1.45-1.29,0-2.41.22-3.38.64-.96.43-2.2.75-3.7.96-1.72-.43-3.21-.96-4.5-1.61s-2.79-1.07-4.5-1.29c-.64-.43-1.29-.8-1.93-1.12-.64-.32-1.5-.48-2.57-.48-.22-.64-.48-1.29-.8-1.93-.32-.64-.8-1.18-1.45-1.61-.43-2.78-1.61-5.14-3.53-7.07.85-.85,1.13-1.98.8-3.38-.32-1.39-.59-2.62-.8-3.7.85,0,1.98.06,3.37.16,1.39.11,2.41-.16,3.05-.8.21-1.93.11-3.32-.32-4.18.43-.43.96-.59,1.61-.48.64.11,1.29.06,1.93-.16-.22,1.93.32,3,1.61,3.21.85.22,1.39,0,1.61-.64.21-.64.53-1.18.96-1.61,1.07-.21,2.09-.53,3.05-.96.96-.43,1.87-.75,2.73-.96.21-.43.32-.85.32-1.29s.21-.75.64-.96c-.86-1.29-1.93-2.14-3.21-2.57-.86-.21-1.5-.16-1.93.16-.43.32-.96.7-1.61,1.12h-1.61c-.64,0-1.07.11-1.29.32-1.5-.43-2.95-.91-4.34-1.45-1.4-.53-3.05-.59-4.98-.16-.43-.43-.96-.75-1.61-.96-.64-.21-.86-.75-.64-1.61-.86,0-1.5-.11-1.93-.32-.43-.21-.96-.32-1.61-.32-.43-.64-.75-1.29-.96-1.93-.22-.64-.64-1.07-1.29-1.28-.86.22-1.34.7-1.45,1.45-.11.75-.38,1.34-.8,1.77,0,1.07-.16,1.98-.48,2.73-.32.75-.7,1.45-1.13,2.09-.22.64-.16,1.13.16,1.45s.37.7.16,1.13c.21.86,0,1.34-.64,1.45-.64.11-1.07.48-1.29,1.13-.22.22-.27.38-.16.48.11.11.05.16-.16.16.21,2.57,1.5,3.97,3.86,4.18.64-.21.8-.75.48-1.61-.32-.85-.27-1.5.16-1.93.21-.64.43-1.23.64-1.77.21-.53.53-.91.96-1.13,0-.64-.11-1.01-.32-1.12-.22-.11-.11-.37.32-.8h2.89c.43,0,.69.16.8.48.11.32.27.7.48,1.13,1.07-.21,1.82-.11,2.25.32-.22.43-.16.75.16.96.32.22.37.54.16.96-.43.22-.75.64-.96,1.29-.86.22-1.34.11-1.45-.32-.11-.43-.38-.64-.8-.64-.86.22-1.5.22-1.93,0-.43-.21-.96-.32-1.61-.32-.43.64-.43,1.34,0,2.09.43.75.53,1.56.32,2.41,0,.86-.32,1.29-.96,1.29s-1.07.11-1.29.32c-.22.64-.48,1.29-.8,1.93-.32.64-.59,1.29-.8,1.93-.43,0-.75.11-.96.32-.22.22-.64.32-1.29.32v4.18c0,.64-.27.96-.8.96s-.8.32-.8.96c.21.64.05.96-.48.96s-.8.43-.8,1.29c-.64.22-1.24.64-1.77,1.29-.54.64-.91,1.4-1.13,2.25-.64.43-1.24.91-1.77,1.45s-1.13,1.02-1.77,1.45h-2.25c-.86.22-1.5.7-1.93,1.45-.43.75-.96,1.45-1.61,2.09-1.5.43-2.95.59-4.34.48-1.4-.11-3.16-.16-5.3-.16-.43-.21-.8-.43-1.13-.64-.32-.21-.7-.53-1.13-.96-.86.22-1.45.22-1.77,0-.32-.21-.8-.32-1.45-.32,0-.43-.32-.64-.96-.64,0-.43-.11-.75-.32-.96-.22-.21-.48-.37-.8-.48-.32-.11-.59-.32-.8-.64-.22-.32-.22-.69,0-1.13h-.48c-.11,0-.27-.11-.48-.32-.22-.21-.32-.43-.32-.64-.43-.21-.91-.37-1.45-.48-.54-.11-.7-.59-.48-1.45h-2.89c-.64-1.71-1.61-2.89-2.89-3.54,0-.85-.11-1.61-.32-2.25-.22-.64-.32-1.29-.32-1.93.43-.43.91-.85,1.45-1.29.53-.43,1.01-.75,1.45-.96.43,1.29.96,2.3,1.61,3.05.64.75,1.71,1.13,3.21,1.13,0-.43-.11-.75-.32-.96-.22-.21-.43-.43-.64-.64-.22-.21-.38-.48-.48-.8-.11-.32-.06-.69.16-1.12-.43-.43-.86-.69-1.29-.8-.43-.11-.86-.27-1.29-.48-.22-1.07-.43-2.19-.64-3.38-.22-1.17-.64-2.19-1.29-3.05-.43-.43-.86-.48-1.29-.16-.43.32-.86.27-1.29-.16v-3.21c0-1.07.32-1.82.96-2.25-.22-.43-.38-.85-.48-1.29-.11-.43-.06-1.07.16-1.93.43,0,.64-.16.64-.48s.11-.69.32-1.13c.43-.43.91-.43,1.45,0,.53.43,1.01.32,1.45-.32,0-.64-.11-1.18-.32-1.61-.22-.43-.43-.85-.64-1.29.21-1.29.37-2.41.48-3.37.11-.96.16-2.09.16-3.37.85.22,1.34,0,1.45-.64.11-.64.48-1.07,1.12-1.29.43-.64.64-1.39.64-2.25.85.22,1.29-.11,1.29-.96.21-.21.43-.32.64-.32s.43-.11.64-.32h4.5c.64,0,1.13-.21,1.45-.64.32-.43.59-.85.8-1.29.64,0,1.18-.11,1.61-.32.43-.21.8-.48,1.13-.8.32-.32.69-.64,1.13-.96.43-.32.96-.48,1.61-.48.85,0,1.55.16,2.09.48.53.32,1.01.8,1.45,1.45.43,0,.64-.27.64-.8s.11-.91.32-1.13h1.77c.53,0,.91-.11,1.13-.32-.43-1.5-.32-2.57.32-3.21s1.18-1.39,1.61-2.25c-.22-.85-.48-1.5-.8-1.93-.32-.43-.59-.96-.8-1.61-.64-.21-1.29-.37-1.93-.48-.64-.11-1.29-.16-1.93-.16.21-.43.05-.69-.48-.8-.54-.11-.91-.27-1.12-.48-.22-.21-.27-.37-.16-.48.11-.11.05-.27-.16-.48,0-.21-.11-.32-.32-.32s-.32-.11-.32-.32c-.64-.64-1.18-1.18-1.61-1.61-.43-.43-1.29-.53-2.57-.32-.22-.64-.59-1.01-1.13-1.13-.54-.11-.91-.59-1.13-1.45-.64.22-1.02.16-1.12-.16-.11-.32-.38-.59-.8-.8-1.29,0-2.14.32-2.57.96-.43-.21-.86-.43-1.29-.64-.43-.21-.86-.43-1.29-.64-2.36.22-4.5.38-6.43.48-1.93.11-3.65.27-5.14.48,0,.43-.27.54-.8.32-.54-.21-.91-.21-1.12,0-.43.64-1.02,1.07-1.77,1.29-.75.22-1.5.32-2.25.32s-1.5.11-2.25.32c-.75.22-1.45.43-2.09.64h-4.18c-1.5.43-2.84,1.02-4.02,1.77-1.18.75-2.84,1.13-4.98,1.13-.43,0-.69-.21-.8-.64-.11-.43-.27-.75-.48-.96-.85,0-1.5-.16-1.93-.48-.43-.32-1.07-.48-1.93-.48-.64-.85-1.5-1.61-2.57-2.25.64-.85.75-1.77.32-2.73-.43-.96-.75-1.87-.96-2.73v-7.07c.22-1.29.64-2.3,1.29-3.05.64-.75,1.29-1.55,1.93-2.41.86.22,1.45.11,1.77-.32.32-.43.8-.75,1.45-.96h3.86c1.29,0,2.36.22,3.21.64.85,0,1.5-.11,1.93-.32.43-.21.96-.43,1.61-.64,1.5-.21,2.78-.21,3.86,0,1.07.22,2.35.32,3.86.32.85.86,2.03,1.34,3.53,1.45,1.5.11,3,.16,4.5.16.43-.21.69-.11.8.32.11.43.27.75.48.96.21.22.43.32.64.32s.32.11.32.32c1.71.64,3.32.91,4.82.8,1.5-.11,3.21.06,5.14.48.43.43.91.91,1.45,1.45.53.54,1.13,1.02,1.77,1.45h2.89c.21.43.48.75.8.96.32.22.37.54.16.96.64-.21,1.07-.16,1.29.16.21.32.43.59.64.8,0,.43.21.64.64.64s.64.11.64.32c1.07.22,1.98.22,2.73,0,.75-.21,1.45-.21,2.09,0-.22.86-.27,1.56-.16,2.09.11.54.37,1.02.8,1.45.43.43,1.01.75,1.77.96.75.22,1.45.43,2.09.64,0,.43-.16.8-.48,1.12-.32.32-.48.7-.48,1.13.43.43.96.75,1.61.96.64.22,1.29.43,1.93.64.64.64,1.23,1.34,1.77,2.09.53.75,1.23,1.45,2.09,2.09,0,.86.11,1.5.32,1.93.21.43.43.96.64,1.61.21-.21.53-.37.96-.48.43-.11.53-.48.32-1.13,0-.43-.22-.69-.64-.8-.43-.11-.54-.48-.32-1.13,0-1.5-.06-2.73-.16-3.7-.11-.96.05-2.09.48-3.37,1.29-.21,2.62-.27,4.02-.16,1.39.11,2.52-.27,3.37-1.13,0-.85.11-1.45.32-1.77.21-.32.32-.91.32-1.77,1.07-.85,2.09-1.82,3.05-2.89.96-1.07,1.98-2.03,3.05-2.89,1.07,0,1.98-.11,2.73-.32.75-.21,1.66-.21,2.73,0,.21-.64.27-1.12.16-1.45-.11-.32-.32-.59-.64-.8-.32-.21-.59-.37-.8-.48-.22-.11-.32-.37-.32-.8.43-.43.69-.91.8-1.45.11-.53.69-.69,1.77-.48.21-.64.48-1.18.8-1.61.32-.43.59-.96.8-1.61,2.36-.43,4.71-1.18,7.07-2.25.85.43,1.66.48,2.41.16.75-.32,1.77-.37,3.05-.16.64.22,1.17.54,1.61.96.43.43.85.75,1.29.96,1.07.22,1.82-.05,2.25-.8.43-.75.96-1.23,1.61-1.45,1.29,0,2.14.38,2.57,1.13.43.75.85,1.45,1.29,2.09.85,0,1.5.22,1.93.64.43.43.96.64,1.61.64v2.25c.85.43,1.29.32,1.29-.32s.32-.85.96-.64c1.29-.21,2.14-.11,2.57.32.64.22,1.18.64,1.61,1.29.43.64.96,1.18,1.61,1.61.64,0,1.12.06,1.45.16.32.11.8.16,1.45.16.43.43.8.86,1.13,1.29.32.43.69.96,1.13,1.61.64.22,1.01.7,1.12,1.45.11.75.59,1.13,1.45,1.13v2.25c.43.43.96.59,1.61.48.64-.11,1.18-.05,1.61.16-.22.43-.16.64.16.64s.59.11.8.32v3.53c.21.86.48,1.45.8,1.77.32.32.48.8.48,1.45.64.43,1.18.96,1.61,1.61.43.64.85,1.29,1.29,1.93.64,0,1.07.11,1.29.32.21.22.75.22,1.61,0,.43.22.59.64.48,1.29-.11.64-.06,1.07.16,1.29,1.07.43,1.93.48,2.57.16.64-.32,1.5-.48,2.57-.48.21-.64.37-1.45.48-2.41.11-.96.59-1.55,1.45-1.77-.22-1.5-.06-2.62.48-3.37.53-.75.91-1.66,1.13-2.73,0-.85-.22-1.39-.64-1.61-.22-.43-.27-.8-.16-1.13.11-.32-.06-.48-.48-.48.43-.21.69-.69.8-1.45.11-.75.16-1.5.16-2.25s-.06-1.5-.16-2.25c-.11-.75-.38-1.34-.8-1.77-.22-.64-.11-1.01.32-1.13.43-.11.75-.48.96-1.13,0-1.5.16-2.78.48-3.86.32-1.07.69-2.03,1.13-2.89.21-3,.21-6.05,0-9.16-.22-3.1-.11-6.05.32-8.84,0-.21.21-.43.64-.64,0-1.29.21-2.41.64-3.37.43-.96,1.18-1.55,2.25-1.77.43.64.43,1.5,0,2.57-.43,1.07-.32,2.04.32,2.89.85.22,1.39.06,1.61-.48.21-.53.64-1.01,1.29-1.45v-3.54c-.22-.43-.59-.96-1.13-1.61-.54-.64-.48-1.39.16-2.25ZM347.81,125.02c.22-.85,0-1.39-.64-1.61-.21.64-.32,1.07-.32,1.29s.32.32.96.32ZM348.45,129.52c-.21.86,0,1.18.64.96.64-.21,1.18-.21,1.61,0,0-.64-.32-1.01-.96-1.12-.64-.11-1.07-.05-1.29.16ZM374.81,177.4v1.93c.85.43,1.71.54,2.57.32.85-.21,1.61-.21,2.25,0v-2.25c-1.29.22-2.2.22-2.73,0-.54-.21-1.24-.21-2.09,0ZM381.56,173.87c.64,0,1.13.06,1.45.16.32.11.59.27.8.48.21.22.43.43.64.64.21.22.64.32,1.29.32.21-.21.32-.53.32-.96v-1.29c-.86,0-1.5-.21-1.93-.64-.43-.43-1.18-.64-2.25-.64-.43.43-.54,1.07-.32,1.93ZM384.77,130.8c.21,0,.37-.16.48-.48.11-.32.16-.59.16-.8s-.06-.43-.16-.64c-.11-.21-.38-.21-.8,0,.21.22.27.59.16,1.12-.11.54-.06.8.16.8ZM388.31,129.2c.64.22,1.01.16,1.13-.16.11-.32.27-.59.48-.8-1.07-.21-1.61.11-1.61.96ZM393.13,188.65c1.07.22,1.77,0,2.09-.64.32-.64.48-1.5.48-2.57-.22-.21-.43-.53-.64-.96-.22-.43-.75-.53-1.61-.32-.43.43-.59,1.07-.48,1.93.11.86.16,1.72.16,2.57ZM396.34,161.33c.43,0,.75-.21.96-.64.21-.43.32-.96.32-1.61,0-.21.11-.64.32-1.29.21-.64,0-.85-.64-.64,0,.64-.32,1.29-.96,1.93s-.64,1.4,0,2.25ZM407.27,174.19c.21.64.21,1.07,0,1.29-.22.22-.32.64-.32,1.29,1.07.22,2.19.43,3.37.64,1.18.22,2.19,0,3.05-.64.21-.85.21-1.61,0-2.25-.22-.64-.43-1.29-.64-1.93-1.5-.21-2.47,0-2.89.64-.43.64-1.29.96-2.57.96ZM407.59,180.62c.21,1.07.48,1.98.8,2.73.32.75,1.01,1.24,2.09,1.45.64-.21,1.29-.53,1.93-.96.64-.43.96-1.18.96-2.25-.22-.21-.32-.53-.32-.96s-.11-.75-.32-.96c-1.93,0-3.65.32-5.14.96ZM414.34,152.66c.64.22,1.23.54,1.77.96.53.43,1.13.75,1.77.96,0-.43.11-.69.32-.8.21-.11.32-.48.32-1.13-.43-.64-1.18-1.12-2.25-1.45-1.07-.32-1.72.16-1.93,1.45ZM416.27,166.48h1.29v-.96h-1.29v.96ZM420.76,160.69c0,.64-.16,1.12-.48,1.45s-.7.59-1.12.8c-.43.22-.8.43-1.13.64-.32.22-.48.64-.48,1.29.21.22.53.48.96.8.43.32.64.91.64,1.77.85-.21,1.45-.59,1.77-1.13.32-.53.53-1.18.64-1.93.11-.75.16-1.55.16-2.41s.11-1.61.32-2.25h-1.29v.96ZM426.55,145.59c-.43-.43-1.07-.59-1.93-.48-.86.11-1.5.48-1.93,1.12.43.43.8.96,1.13,1.61.32.64.8.96,1.45.96.64-.21,1.01-.59,1.13-1.12.11-.53.16-1.23.16-2.09ZM424.46,129.84c-.32-.64-.59-.53-.8.32-.22,0,0,.22.64.64.43,0,.48-.32.16-.96ZM439.73,118.59c.85.22,1.45.11,1.77-.32.32-.43.59-.85.8-1.29-.43-.21-.75-.48-.96-.8-.22-.32-.64-.48-1.29-.48-.22.22-.32.64-.32,1.28v1.61ZM448.08,179.97c1.29,0,2.14-.32,2.57-.96-.22-.21-.59-.37-1.13-.48-.54-.11-1.12-.16-1.77-.16,0,.86.11,1.4.32,1.61ZM501.11,101.88h2.57c.85,0,1.5-.11,1.93-.32.21-.85.16-1.45-.16-1.77s-.64-.59-.96-.8c-.32-.21-.7-.37-1.13-.48-.43-.11-.64-.37-.64-.8h-1.29c0,.64-.22,1.29-.64,1.93-.43.64-.32,1.4.32,2.25ZM507.86,277.35c-.22.22-.54.32-.96.32s-.86-.05-1.29-.16c-.43-.11-.8-.16-1.13-.16s-.7.11-1.13.32c.21.64.43,1.24.64,1.77.21.54.43,1.13.64,1.77.85.22,1.82.32,2.89.32s2.03-.21,2.89-.64c0-.64-.06-1.12-.16-1.45-.11-.32-.32-.53-.64-.64-.32-.11-.64-.27-.96-.48-.32-.21-.59-.53-.8-.96ZM518.46,114.09c-.22,0-.38-.05-.48-.16-.11-.11-.38-.16-.8-.16-.22.43-.06.7.48.8.53.11.8-.05.8-.48ZM549.32,130.48c.21-.21.43-.16.64.16.21.32.27.59.16.8-.11.22-.22.48-.32.8-.11.32-.16.59-.16.8l.32.96-.32.96c-.43-.64-1.18-1.18-2.25-1.61-.22-1.07-.06-1.71.48-1.93.53-.21,1.01-.53,1.45-.96Z"/>
      <path class="cls-1" d="M716.76,284.74c-1.93,0-3.7-.16-5.3-.48-1.61-.32-2.52-1.34-2.73-3.05h-2.89c-.43-1.07-1.5-1.61-3.21-1.61-.64-.64-2.14-1.39-4.5-2.25-.43-.64-.96-1.18-1.61-1.61-.64-.43-1.18-1.07-1.61-1.93-1.5-.43-2.84-.96-4.02-1.61-1.18-.64-2.73-1.07-4.66-1.29-.22-.85-.64-1.34-1.29-1.45-.64-.11-1.07-.59-1.29-1.45h-1.93l-1.29-1.61h-3.21c-.43-.43-1.07-.8-1.93-1.13-.86-.32-1.61-.8-2.25-1.45-.64-.21-1.5-.32-2.57-.32h-.96c-.86-.85-1.98-1.45-3.37-1.77-1.4-.32-2.52-1.01-3.38-2.09h-.96c-.21,0-.48-.05-.8-.16-.32-.11-.59-.16-.8-.16h-.96c-.43-.85-1.18-1.34-2.25-1.45-1.07-.11-1.82-.59-2.25-1.45h-.96c-1.07,0-2.25-.43-3.54-1.29h-2.57c-.86-.85-1.98-1.34-3.37-1.45-1.4-.11-2.73-.37-4.02-.8l-.32.32c-.21,0-.32-.11-.32-.32v-.64c0-.21-.11-.32-.32-.32h-.32c-.22-.43-.54-.64-.96-.64h-.32c-.22,0-.32-.11-.32-.32h-1.29c-.64,0-1.56-.16-2.73-.48-1.18-.32-2.2-.48-3.05-.48h-.96c-1.5-1.07-3.11-1.98-4.82-2.73-1.72-.75-3.32-1.45-4.82-2.09h-3.86c0-.43-.11-.64-.32-.64h-.32c-.21,0-.38-.16-.48-.48-.11-.32-.27-.48-.48-.48h-1.93c-.86,0-1.66-.11-2.41-.32-.75-.21-1.66-.32-2.73-.32h-.96c-.64-.43-1.4-.8-2.25-1.13-.86-.32-1.4-.91-1.61-1.77-.86,0-1.29-.32-1.29-.96h-9.64c-.64,0-1.13-.21-1.45-.64-.32-.43-.7-.85-1.12-1.29h-.64c-.64,0-1.13-.11-1.45-.32-.32-.21-.7-.43-1.12-.64-.64-1.29-1.24-2.52-1.77-3.7-.54-1.18-.91-2.62-1.13-4.34,0-.85-.16-1.39-.48-1.61-.32-.21-.59-.64-.8-1.29v-3.86c-.64-.85-2.14-1.61-4.5-2.25-.43-1.07-.86-1.71-1.29-1.93l-.32-2.25c0-1.93.64-2.89,1.93-2.89.43,0,.75.11.96.32.21.64.37,1.02.48,1.13.11.11.27.16.48.16h.64c.21.22.32.59.32,1.13s.11.91.32,1.13c.43,0,.64-.11.64-.32l-.32-1.29.32-.64c.85-.64,1.66-1.29,2.41-1.93.75-.64,1.34-1.5,1.77-2.57,1.29,0,2.14-.53,2.57-1.61,1.07,0,1.93-.21,2.57-.64.64-.43,1.29-.64,1.93-.64h1.29c.64-.43,1.23-.85,1.77-1.29.53-.43,1.12-.85,1.77-1.29,1.29-.21,2.68-.32,4.18-.32h4.18c2.78,0,4.44-.27,4.98-.8s1.23-.8,2.09-.8h.32c.21-.85.59-1.55,1.12-2.09.53-.53.8-1.23.8-2.09h.96c.43,0,.69-.11.8-.32.11-.21.37-.32.8-.32l.96.32c.43-.21.8-.53,1.13-.96.32-.43.8-.64,1.45-.64.21-.43.48-.8.8-1.12.32-.32.48-.8.48-1.45.85-.21,1.45-.53,1.77-.96.32-.43.8-.96,1.45-1.61.64,0,1.07-.53,1.29-1.61h.32c.64,0,.96-.32.96-.96v-.32c.64,0,1.07-.11,1.29-.32.21-.21.43-.32.64-.32h.96v-.96c0-.64.16-1.18.48-1.61.32-.43.48-1.07.48-1.93.43-.64,1.18-1.29,2.25-1.93.43-1.07.96-1.61,1.61-1.61,1.29,0,1.93.91,1.93,2.73s.1,2.95.32,3.37c1.07-.21,1.61-.85,1.61-1.93s-.11-2.03-.32-2.89c.21-1.07,1.07-2.14,2.57-3.21.43-.21.64-.64.64-1.29v-.96c0-.43-.21-.64-.64-.64h-.32c-.64,0-1.07-.21-1.29-.64.43-1.71,1.17-3.1,2.25-4.18l-.32-.32c0-.85.27-1.45.8-1.77.53-.32.91-.91,1.13-1.77.64-.21,1.34-.32,2.09-.32s1.45-.11,2.09-.32c0-.64-.27-.96-.8-.96s-1.02-.21-1.45-.64c-.22-1.07-.54-1.98-.96-2.73-.43-.75-.86-1.55-1.29-2.41.64,0,1.07-.27,1.29-.8.21-.53.53-.8.96-.8,1.07,0,1.93.11,2.57.32,1.5,0,2.35-.64,2.57-1.93,0-.64-.11-1.39-.32-2.25-.43-.21-.96-.32-1.61-.32-.86,0-1.61.32-2.25.96-1.5-.43-3-.64-4.5-.64s-2.89-.21-4.18-.64c-.22-.21-.32-.53-.32-.96s-.22-.64-.64-.64l-.64.32c-.22-.85-.32-1.82-.32-2.89s-.54-1.61-1.61-1.61c-.64,0-1.02.38-1.12,1.13-.11.75-.27,1.45-.48,2.09-1.29-.21-2.2-.59-2.73-1.12-.54-.53-1.34-.91-2.41-1.13-.21-.64-.43-1.07-.64-1.29-.22-.21-.32-.43-.32-.64l.32-.32c-.86,0-1.34.32-1.45.96-.11.64-.48,1.18-1.13,1.61-1.72.64-3,1.82-3.86,3.54,0,.86.16,1.56.48,2.09.32.54.48,1.24.48,2.09v.64c-1.29.86-2.25,1.29-2.89,1.29h-.64c-.86.64-1.5,1.4-1.93,2.25v.8c0,.11-.11.22-.32.32-.22.11-.38.27-.48.48-.11.22-.16.43-.16.64v.64c0,.22-.06.48-.16.8-.11.32-.27.7-.48,1.13-.22.43-.32.86-.32,1.29v.64c-.43.43-.75.86-.96,1.29-.22.43-.54.86-.96,1.29-.64.86-1.29,1.5-1.93,1.93-.43,1.93-1.5,4.07-3.21,6.43l.32,1.29c0,.22-.11.48-.32.8-.22.32-.32.7-.32,1.13v.64c-.43.64-.96,1.12-1.61,1.45-.64.32-1.18.8-1.61,1.45-.86,0-1.45.11-1.77.32-.32.22-.91.32-1.77.32-.22.64-.64.96-1.29.96s-1.18.22-1.61.64c-.22,0-.32.11-.32.32v.32c0,.22-.22.32-.64.32h-.32c-.22.22-.32.54-.32.96v.64c0,.22-.22.32-.64.32-.22.43-.43.75-.64.96-.22.22-.43.64-.64,1.29-.43.22-.91.32-1.45.32s-1.02.11-1.45.32c-1.93.86-3.53,2.04-4.82,3.53-.86.22-1.61.43-2.25.64-1.29.86-2.89,1.29-4.82,1.29-3.65,0-6.75-.96-9.32-2.89h-.64c-.43,0-.75-.11-.96-.32-.22-.21-.54-.32-.96-.32l-.96.32c-.43-.85-1.18-1.29-2.25-1.29-1.29-1.71-2.57-2.68-3.86-2.89v-.64c0-.21-.11-.37-.32-.48-.22-.11-.32-.27-.32-.48l.32-.64c-.22-.43-.54-.69-.96-.8-.43-.11-.64-.27-.64-.48,0-1.07-.43-1.82-1.29-2.25v-2.25c-.22-.64-.54-1.12-.96-1.45-.43-.32-.75-.69-.96-1.13v-.32c0-.64-.22-1.07-.64-1.29-.43-.21-.64-.64-.64-1.29v-1.29c.21-.43.48-.75.8-.96.32-.21.48-.53.48-.96v-1.29c0-.21-.16-.48-.48-.8-.32-.32-.48-.59-.48-.8-.43-.21-.7-.53-.8-.96-.11-.43-.38-.64-.8-.64v-.96c0-.85-.16-1.66-.48-2.41-.32-.75-.48-1.45-.48-2.09,0-.85.21-1.61.64-2.25l.32-.96v-.64c.85-.64,1.71-1.18,2.57-1.61v-1.29c0-.85.21-1.93.64-3.21l-.32-.32c0-.43.21-.64.64-.64s.69-.21.8-.64c.11-.43.32-.8.64-1.13.32-.32.69-.69,1.13-1.13.64.22,1.13.59,1.45,1.13.32.54.8.91,1.45,1.13.64-.21,1.23-.48,1.77-.8.53-.32,1.13-.48,1.77-.48l1.29.32.32-2.57v-.96c0-.43-.16-.64-.48-.64s-.59-.21-.8-.64l.32-.96c.21-.21.43-.32.64-.32.43,0,.8.48,1.13,1.45.32.96.8,1.45,1.45,1.45.21,0,.32-.16.32-.48s.21-.48.64-.48c0-.43.21-.64.64-.64l.32.32v-2.57c0-.21-.11-.32-.32-.32l-.32.32c.43-.64,1.13-.96,2.09-.96s1.66-.21,2.09-.64c.85.22,1.45.54,1.77.96.32.43.8.86,1.45,1.29,2.78-1.07,5.03-1.61,6.75-1.61s2.89.27,3.53.8c.64.54,1.29.8,1.93.8v.64c0,.64.27,1.07.8,1.29.53.22.91.64,1.13,1.29h.96c.64,0,1.12.06,1.45.16.32.11.8.16,1.45.16.85,0,1.39-.11,1.61-.32.21-.21.53-.37.96-.48.43-.11.64-.48.64-1.13s.21-1.13.64-1.45c.43-.32.75-.69.96-1.13.21-.43.53-.75.96-.96.43-.21.69-.53.8-.96.11-.43.37-.64.8-.64h.32l-.32-.64c0-.21.27-.43.8-.64.53-.21.8-.53.8-.96v-.32c.64,0,1.13-.27,1.45-.8.32-.53.8-.91,1.45-1.13v-1.61c.21-.64.11-1.18-.32-1.61,0-.43.16-.69.48-.8.32-.11.59-.37.8-.8-.22,0-.32-.96-.32-2.89.21-.85.32-1.61.32-2.25v-.96c0-.64.21-1.29.64-1.93,0-.43.48-.69,1.45-.8.96-.11,1.45-.37,1.45-.8,0-.21-.11-.48-.32-.8-.22-.32-.43-.48-.64-.48-.43.22-.86.32-1.29.32h-.64c-.22-.43-.32-.96-.32-1.61s-.11-1.13-.32-1.45c-.22-.32-.32-.59-.32-.8,0-.43.16-.69.48-.8.32-.11.48-.48.48-1.12.43.22.8.48,1.12.8.32.32.69.48,1.13.48h.64c.43.43.85.91,1.29,1.45.43.54,1.18.91,2.25,1.12.43-.21.64-.53.64-.96s-.05-.8-.16-1.13c-.11-.32-.38-.48-.8-.48s-.75-.21-.96-.64v-.32c0-.21-.22-.37-.64-.48-.43-.11-.64-.27-.64-.48,0-1.29.11-2.14.32-2.57.85.22,1.55.48,2.09.8.53.32,1.07.7,1.61,1.13.53.43,1.13.75,1.77.96.64.22,1.07.75,1.29,1.61l.96-.32c.21,0,.37.11.48.32.11.22.37.32.8.32h.32c0,.64.16,1.02.48,1.13.32.11.48.38.48.8l-.32.64c-.21.22-.32.54-.32.96,0,1.5.43,2.25,1.29,2.25.21,0,.43-.11.64-.32s.43-.32.64-.32c1.5,0,2.89.54,4.18,1.61.64.43,1.5.64,2.57.64h1.29c.64.43,1.29,1.18,1.93,2.25l.64-.32c.21.43.53.64.96.64h.32c0,.64.32,1.07.96,1.29.64.22.96.54.96.96v.32c3,.43,5.46.64,7.39.64h2.25c0,.43.21.64.64.64s.64.32.64.96c.43,0,.69.22.8.64.1.43.37.64.8.64.21.86.59,1.56,1.13,2.09.53.54,1.12,1.02,1.77,1.45,0,1.29.21,2.14.64,2.57.85,1.29,1.29,2.36,1.29,3.21,0,.22-.11.43-.32.64-.21.22-.32.54-.32.96,0,.86.37,1.66,1.13,2.41.75.75,1.13,1.45,1.13,2.09,0,.86-.27,1.5-.8,1.93-.54.43-1.02.96-1.45,1.61,0,.43.27.64.8.64s.8.32.8.96v.64c0,.43.21.86.64,1.29.43.43.75,1.02.96,1.77.21.75.75,1.24,1.61,1.45,0,2.14.16,3.27.48,3.37.32.11.59.38.8.8,0,.64.1.96.32.96v3.86c.21.86.43,1.5.64,1.93.64,1.07.96,2.14.96,3.21,0,.43-.11.8-.32,1.13-.22.32-.32.7-.32,1.12v1.29c-.22.64-.48,1.13-.8,1.45-.32.32-.48.7-.48,1.12l.32.96c-.43.22-.75.54-.96.96-.22.43-.43.96-.64,1.61,0,.43.21.86.64,1.29.43.43.64.86.64,1.29s-.22.64-.64.64v-.32c-.43,0-.64.22-.64.64v.96c0,.43-.11.7-.32.8-.21.11-.32.27-.32.48l.32.64c-.64.22-1.07.59-1.29,1.12-.21.54-.54.8-.96.8-1.07,3.86-2.68,6.96-4.82,9.32-.86.22-1.5.54-1.93.96-.43.43-1.07.75-1.93.96-.22.22-.32.59-.32,1.13s-.11.91-.32,1.12c-1.5.22-2.63.7-3.37,1.45-.75.75-1.77,1.45-3.05,2.09,0,.43-.11.75-.32.96s-.32.54-.32.96v.32c-.22.22-.43.32-.64.32h-.64c-.22,0-.43.06-.64.16-.21.11-.32.27-.32.48v.64c-.43.22-.86.38-1.29.48-.43.11-.75.48-.96,1.13h-.64c-.22,0-.43.06-.64.16-.21.11-.43.16-.64.16h-.32c-.86.22-1.4.75-1.61,1.61h-.64c-1.07,0-1.93.32-2.57.96-.64.64-1.4,1.07-2.25,1.29l-.64,2.89c.85,2.79,2.57,4.5,5.14,5.14.21.64.48,1.18.8,1.61.32.43.59.96.8,1.61,1.07.86,1.71,1.61,1.93,2.25h.64c.64,0,.96.32.96.96l1.29-.32c.64,0,1.17.11,1.61.32.43.22.96.32,1.61.32h1.61c.21,0,.43.11.64.32l-.32.64c.43.22.96.43,1.61.64.64.22,1.07.64,1.29,1.29h2.25c.21.64.96,1.29,2.25,1.93,0,.64.37,1.29,1.13,1.93.75.64,1.13,1.18,1.13,1.61h.64c.21,0,.43.11.64.32.21.22.53.32.96.32,0,.64.53,1.18,1.61,1.61v.96l1.29-.32c.43,0,.8.11,1.13.32.32.22.69.32,1.13.32h1.29c0,.86.43,1.29,1.29,1.29.21.22.43.48.64.8.21.32.32.7.32,1.12v.64c1.29.43,3.05,1.45,5.3,3.05,2.25,1.61,4.34,2.52,6.27,2.73.85,0,1.34-.21,1.45-.64.1-.43.27-.64.48-.64l.64.32c.21,0,.43-.21.64-.64.85.22,1.61.32,2.25.32s1.39-.11,2.25-.32c.21-.64.32-1.39.32-2.25v-4.5c0-.21-.22-.32-.64-.32s-.64-.21-.64-.64v-.64c0-.21-.22-.43-.64-.64,0-1.29.11-2.46.32-3.53-.21-.64-.59-1.23-1.12-1.77-.54-.53-.91-1.34-1.13-2.41-1.5-1.93-2.25-3.21-2.25-3.86,0-.43.11-.69.32-.8.21-.11.32-.37.32-.8l-.32-.64c.21-.64.48-1.18.8-1.61.32-.43.59-.96.8-1.61.21-.64.64-1.71,1.29-3.21v-8.36c0-.43.16-.75.48-.96.32-.21.48-.64.48-1.29,0-.43-.16-.8-.48-1.13-.32-.32-.7-.69-1.13-1.13,0-7.71.21-14.46.64-20.25v-2.89l-.32-5.14c0-1.5.21-2.78.64-3.86.21-.43.43-.64.64-.64.21.22.64.43,1.29.64.21-.85.53-1.45.96-1.77.43-.32.64-.91.64-1.77,0-1.07-.43-1.61-1.29-1.61s-1.5-.21-1.93-.64c0-.21-.11-.53-.32-.96-.22-.43-.38-.91-.48-1.45-.11-.53-.16-1.12-.16-1.77l.32-2.25c0-.85-.32-1.61-.96-2.25.21-.85.43-1.45.64-1.77.21-.32.32-.69.32-1.13v-1.29c.21-.85.59-1.66,1.13-2.41.53-.75.8-1.45.8-2.09,0-1.29-.27-2.19-.8-2.73-.54-.53-.91-1.23-1.13-2.09v-4.82c.21-1.07.53-1.93.96-2.57.43-.64.64-1.39.64-2.25l-.32-.96c.43,0,.69-.16.8-.48.11-.32.27-.59.48-.8,0-2.57-.32-4.18-.96-4.82.21-.43.43-.69.64-.8.21-.11.32-.37.32-.8.21-4.71.32-8.36.32-10.93s-.11-4.93-.32-7.07v-.32c0-.43-.21-.69-.64-.8-.43-.11-.64-.27-.64-.48v-.64c.21-.85.32-1.71.32-2.57,0-.43-.06-1.01-.16-1.77-.11-.75-.16-1.55-.16-2.41v-1.61c.43-.43.75-1.01.96-1.77.21-.75.75-1.13,1.61-1.13.21.43.32,1.82.32,4.18v2.41c0,.54.43,1.02,1.29,1.45.43,0,.69-.16.8-.48.11-.32.27-.8.48-1.45.21-.64.32-1.39.32-2.25,0-1.93-.75-4.5-2.25-7.71v-.64c0-.21.11-.43.32-.64.21-.21.43-.53.64-.96,0-.85-.22-1.45-.64-1.77-.43-.32-.64-.91-.64-1.77.43,0,.75-.16.96-.48.21-.32.43-.48.64-.48l.64.32c.85.64,1.34,1.56,1.45,2.73.1,1.18.48,2.2,1.13,3.05,0,1.07.21,2.04.64,2.89v3.53c0,.64.16,1.02.48,1.13.32.11.48.48.48,1.13v.64c.64,0,1.13.27,1.45.8.32.54.91.8,1.77.8.21.86.64,1.5,1.29,1.93.64.43,1.29.96,1.93,1.61.21.43.53.7.96.8.43.11.75.38.96.8.21.43.75.86,1.61,1.29h4.82c1.29.22,2.35.54,3.21.96.85.43,1.82.75,2.89.96,1.07,0,2.35-.21,3.86-.64,1.5-.43,2.57-.75,3.21-.96,1.07,0,2.09.16,3.05.48.96.32,1.98.59,3.05.8,1.07,1.29,1.93,2.04,2.57,2.25.21,1.29.32,2.79.32,4.5v2.57c0,1.5.32,2.68.96,3.53v-.64,2.57c0,.43-.11.86-.32,1.29-.22.43-.32,1.07-.32,1.93v.96c0,.64-.11,1.18-.32,1.61-.21.43-.43.75-.64.96-.22.22-.32.64-.32,1.29-1.29.22-2.57.32-3.86.32-.64,0-1.4-.16-2.25-.48-.86-.32-2.3-.64-4.34-.96-2.04-.32-3.48-.59-4.34-.8h-.32c-.43,0-.75.16-.96.48-.22.32-.54.48-.96.48l-.32-.32c-2.57,0-4.07.22-4.5.64-.43.86-1.18,1.5-2.25,1.93-.64,3-.96,4.93-.96,5.78v1.93c-.21.43-.43.96-.64,1.61-.22.64-.54,1.18-.96,1.61v5.46c.85,1.5,1.29,3.21,1.29,5.14,0,4.29-.54,7.82-1.61,10.61v4.5c0,1.29-.22,2.57-.64,3.86,0,1.07.11,2.36.32,3.86v.96c0,.86-.11,1.72-.32,2.57.21,1.07.48,2.09.8,3.05.32.96.69,1.98,1.13,3.05-.22,1.72-.64,3.11-1.29,4.18-.64,1.07-.96,2.25-.96,3.53s.21,2.47.64,3.54c.43,1.07.64,2.14.64,3.21,0,.22-.11.59-.32,1.12-.22.54-.32,1.56-.32,3.05l.32.96c0,.86-.43,1.5-1.29,1.93.21,4.07.32,8.19.32,12.37s.64,8.09,1.93,11.73c-.86,1.93-1.29,3.97-1.29,6.11,0,1.93.53,3.65,1.61,5.14v1.29c0,.64-.11,1.24-.32,1.77-.21.54-.32,1.02-.32,1.45s.21.96.64,1.61v.32c0,.22-.16.48-.48.8-.32.32-.48.7-.48,1.13.21.64.32,1.02.32,1.13s.05.38.16.8c.11.43.21.64.32.64.1,0,.16.48.16,1.45s.16,1.56.48,1.77c.32.22.48.43.48.64v.64c0,.22.11.59.32,1.12.21.54.64.91,1.29,1.13v.32c0,.43.05.7.16.8.1.11.16.27.16.48v.64c.21.43.48.75.8.96.32.22.53.48.64.8.11.32.27.48.48.48h.64c.21,0,.43.22.64.64.21.43.53.64.96.64.21.86.64,1.45,1.29,1.77.64.32,1.07,1.02,1.29,2.09,1.07,0,2.03.22,2.89.64.85.43,1.93.75,3.21.96v.32c0,.64.05,1.13.16,1.45.11.32.16.59.16.8,0,.43-.11.86-.32,1.29-.22.43-.54.75-.96.96-.43.22-.64.75-.64,1.61ZM609.74,228.18c.43-.43.64-.85.64-1.29s-.22-1.07-.64-1.93h-.64c-.86,0-1.29.54-1.29,1.61l.32.96h.32c.21,0,.37.11.48.32.11.22.27.32.48.32h.32ZM608.77,111.52h-.64c0-1.93.43-3.1,1.29-3.53,1.07.22,1.61.96,1.61,2.25v.96h-.64c-.22,0-.43.06-.64.16-.22.11-.54.16-.96.16ZM611.02,155.23v-2.57c-.64,0-1.18-.11-1.61-.32-.43,0-.75.11-.96.32,0,1.72.64,2.57,1.93,2.57h.64ZM608.77,130.48c.64,0,1.29-.75,1.93-2.25-.43,0-.75-.11-.96-.32-.22,0-.43.06-.64.16-.22.11-.32.91-.32,2.41ZM612.63,159.41c.21-.43.32-.96.32-1.61s-.22-.96-.64-.96c-.22,0-.43.06-.64.16-.22.11-.32.59-.32,1.45,0,.64.32.96.96.96h.32ZM710.97,279.28c.21,0,.32-.11.32-.32,0-.43-.21-.64-.64-.64,0,.64.1.96.32.96ZM725.76,131.77v-.64c0-1.29-.54-1.93-1.61-1.93h-.32v2.25h.64c.43,0,.85.11,1.29.32Z"/>
      <path class="cls-1" d="M835.03,119.55v10.61c-.21,1.07-.59,2.14-1.13,3.21-.54,1.07-.7,2.47-.48,4.18-.43.43-.86.91-1.29,1.45-.43.54-.96.91-1.61,1.13,0,.64-.27.91-.8.8-.54-.11-.91.06-1.13.48-.21.43-.48.7-.8.8-.32.11-.59.27-.8.48-1.5-.43-2.84-.53-4.02-.32-1.18.22-2.52.32-4.02.32-.86.22-1.66.48-2.41.8-.75.32-1.77.38-3.05.16-1.29.86-2.73,1.45-4.34,1.77-1.61.32-3.16.8-4.66,1.45-.64-.21-.91,0-.8.64.11.64-.16.86-.8.64-.43,0-.7.16-.8.48-.11.32-.27.59-.48.8h-3.54c-.86,1.07-1.72,1.93-2.57,2.57-.86.64-1.72,1.5-2.57,2.57-.43,0-.86.11-1.29.32-.43.22-.86.32-1.29.32-.86.64-1.61,1.5-2.25,2.57-.64,0-1.13.06-1.45.16-.32.11-.64.32-.96.64-.32.32-.59.59-.8.8-.22.22-.64.22-1.29,0,0,.86-.27,1.34-.8,1.45-.54.11-.8.59-.8,1.45-.64.22-1.07.54-1.29.96-.21.43-.43.86-.64,1.29.21.43.11.64-.32.64s-.75.11-.96.32c-.22.22-.32.48-.32.8s-.11.48-.32.48c-.43.22-.64.64-.64,1.29s-.32,1.07-.96,1.29c-.43.22-.75.54-.96.96-.22.43-.54.86-.96,1.29-.22.43-.64.75-1.29.96-.22,0-.32.22-.32.64s-.11.64-.32.64c-.86.64-1.5,1.4-1.93,2.25-.43.86-1.07,1.5-1.93,1.93,0,.86-.11,1.56-.32,2.09-.22.54-.64.91-1.29,1.12,0,1.72-.64,3.32-1.93,4.82.21.64.1.91-.32.8-.43-.11-.75.06-.96.48-.43.64-.8,1.29-1.13,1.93s-.8,1.07-1.45,1.29c.21.86.16,1.45-.16,1.77-.32.32-.38.91-.16,1.77-.64.22-1.07.7-1.29,1.45-.21.75-.43,1.34-.64,1.77-.22.43-.54.75-.96.96.43,1.72.43,3.11,0,4.18-.43,1.07-.75,2.36-.96,3.86.21.64.05.96-.48.96s-.91.32-1.13.96c.43,1.29.48,2.52.16,3.7-.32,1.18-.48,2.52-.48,4.02,0,1.07.16,2.04.48,2.89.32.86.48,1.82.48,2.89-.22,2.14-.96,4.18-2.25,6.11v10.61c-.22.43-.43.86-.64,1.29-.21.43-.59.8-1.12,1.13-.54.32-.7,1.02-.48,2.09,0,.43.21.7.64.8.43.11.85.16,1.29.16.21.43.37.75.48.96.11.22.48.32,1.13.32.21.22.32.64.32,1.29s.21,1.07.64,1.28c.43.43.75,1.29.96,2.57.21.43.64.7,1.29.8.64.11,1.07.38,1.29.8,0,.86.16,1.61.48,2.25s.48,1.4.48,2.25c0,1.5-.16,2.95-.48,4.34-.32,1.4-.06,2.63.8,3.7,0,.43.21.64.64.64s.85.06,1.29.16c.43.11.75.22.96.32.21.11.32.48.32,1.13,1.07-.21,1.98-.16,2.73.16.75.32,1.45.8,2.09,1.45,1.29-.21,2.41-.21,3.37,0,.96.22,2.09.32,3.38.32.43,0,.8.16,1.13.48.32.32.69.59,1.12.8h6.11c.21-.85.37-1.87.48-3.05.1-1.18.16-2.41.16-3.7,0-.43-.11-.85-.32-1.29-.21-.43-.43-.85-.64-1.29v-2.41c0-.75-.22-1.34-.64-1.77.64-1.5,1.01-3.26,1.13-5.3.11-2.03.16-4.23.16-6.59.21-.21.32-.43.32-.64v-.64c0-.64.21-1.07.64-1.29.43-.21.75-.53.96-.96v-1.77c0-.53.1-1.01.32-1.45,1.29-1.07,3.1-1.61,5.46-1.61,4.28-2.14,9.85-3,16.71-2.57,1.29.22,2.25.75,2.89,1.61.64.86,1.71,1.4,3.21,1.61,0,.64.27,1.07.8,1.29.53.22.91.64,1.13,1.29.64,0,1.01.27,1.13.8.11.54.48.91,1.13,1.13.43.86.8,1.66,1.13,2.41.32.75.91,1.34,1.77,1.77-.21,1.07-.16,1.82.16,2.25.32.43.59.96.8,1.61.21.86.05,1.4-.48,1.61-.54.22-.7.64-.48,1.29.21,2.14.16,4.07-.16,5.78-.32,1.72-.48,3.65-.48,5.78-.22.22-.38.48-.48.8-.11.32-.27.59-.48.8,0,.64-.22,1.02-.64,1.12-.43.11-.75.27-.96.48-.22.64-.43,1.24-.64,1.77-.21.54-.54,1.02-.96,1.45,0,.22-.11.43-.32.64-.21.22-.43.43-.64.64-.22.22-.43.43-.64.64-.21.22-.43.32-.64.32v2.89c-.43,0-.8.06-1.13.16-.32.11-.48.38-.48.8-.64-.21-1.02-.16-1.13.16-.11.32-.48.38-1.13.16-.43.64-1.02,1.13-1.77,1.45-.75.32-1.45.7-2.09,1.13-.86.22-1.61.43-2.25.64-.64.22-1.4.22-2.25,0-.86.22-1.61.54-2.25.96-.64.43-1.29.86-1.93,1.29-.86,0-1.72.06-2.57.16-.86.11-1.5.48-1.93,1.12-.86-.43-2.14-.53-3.86-.32-1.07.43-2.3.91-3.7,1.45-1.4.54-2.73.38-4.02-.48-.86,0-1.5.22-1.93.64-.43.43-1.07.64-1.93.64,0-.43-.27-.59-.8-.48-.54.11-.91-.05-1.13-.48-.43.22-.7.16-.8-.16-.11-.32-.48-.37-1.13-.16-.43-.43-.96-.85-1.61-1.29-.64-.43-1.29-.85-1.93-1.29h-2.57c-.86,0-1.61-.21-2.25-.64-1.07-.21-2.04-.64-2.89-1.29-.86-.64-1.72-1.17-2.57-1.61-.86-.43-1.61-1.07-2.25-1.93-.64-.85-1.5-1.39-2.57-1.61,0-.64-.22-.96-.64-.96s-.54-.32-.32-.96c-.86,0-1.56-.16-2.09-.48-.54-.32-1.13-.48-1.77-.48-.86-1.29-1.72-2.36-2.57-3.21-.86-.85-1.72-1.82-2.57-2.89-.64,0-.96-.21-.96-.64s-.21-.64-.64-.64-.7-.11-.8-.32c-.11-.21-.38-.43-.8-.64-.22-.43-.38-.91-.48-1.45-.11-.53-.38-.91-.8-1.13-.22-.43-.32-.91-.32-1.45s-.11-1.13-.32-1.77c-.43-.43-.86-.75-1.29-.96-.43-.21-.86-.53-1.29-.96-.64-2.35-1.72-4.28-3.21-5.78,0-.43-.06-.8-.16-1.12-.11-.32-.27-.64-.48-.96-.22-.32-.38-.64-.48-.96-.11-.32-.16-.69-.16-1.13,0-.64-.22-1.01-.64-1.13-.43-.11-.75-.48-.96-1.12v-6.75c0-2.14-.54-3.86-1.61-5.14,0-2.35.05-4.23.16-5.62.11-1.39.16-3.26.16-5.62.43-1.29.85-2.46,1.29-3.53.43-1.07.53-2.46.32-4.18-.22-.85-.06-1.34.48-1.45.53-.11.8-.48.8-1.13v-7.39c.21-.21.32-.48.32-.8s.1-.48.32-.48c.21-.21.43-.32.64-.32s.32-.11.32-.32c.21-1.07.75-1.61,1.61-1.61.21-1.71.48-3.32.8-4.82.32-1.5.91-2.68,1.77-3.53v-3.21c.85-.85,1.5-1.93,1.93-3.21.43-1.29.85-2.57,1.29-3.86.64-.21,1.01-.59,1.12-1.13.11-.53.59-.91,1.45-1.13.43-2.14,1.5-3.53,3.21-4.18,0-1.07.27-1.87.8-2.41.53-.53.91-1.23,1.12-2.09,1.07-.64,1.98-1.45,2.73-2.41.75-.96,1.87-1.66,3.37-2.09.43-.85,1.18-1.61,2.25-2.25,0-1.07.32-1.61.96-1.61v-2.89c.85-.43,1.61-.91,2.25-1.45.64-.53,1.29-1.12,1.93-1.77,0-.43.27-.69.8-.8.53-.11.69-.48.48-1.13.21-.43.48-.75.8-.96.32-.21.59-.53.8-.96h3.86c.21-.43.59-.75,1.13-.96.53-.21.91-.53,1.13-.96.21-.21.43-.37.64-.48.21-.11.43-.27.64-.48.21-.43.21-.8,0-1.12-.22-.32-.11-.48.32-.48,0-.85-.16-1.5-.48-1.93-.32-.43-.64-.85-.96-1.29-.32-.43-.64-.91-.96-1.45-.32-.53-.59-1.13-.8-1.77-.43,0-.75-.16-.96-.48-.22-.32-.54-.37-.96-.16-.64,0-.96-.21-.96-.64s-.21-.64-.64-.64h-4.82c-1.5,0-2.79-.32-3.86-.96-.43.22-.75.43-.96.64-.21.22-.54.32-.96.32-.43-.21-.64-.05-.64.48s-.21.7-.64.48c-.43-.21-.75-.11-.96.32h-4.82c-.64-.21-1.07-.21-1.29,0-.21.22-.38.43-.48.64-.11.22-.27.38-.48.48-.22.11-.54.16-.96.16-1.5.22-2.63.06-3.38-.48-.75-.53-1.66-.91-2.73-1.12-.64,0-1.29-.05-1.93-.16-.64-.11-1.18-.05-1.61.16-1.07,0-1.93.16-2.57.48-.64.32-1.4.7-2.25,1.13-1.72-.21-3.54-.37-5.46-.48-1.93-.11-3.53-.48-4.82-1.12,0-.85-.21-1.5-.64-1.93-.21-.85-.1-1.39.32-1.61.43-.21.54-.75.32-1.61v-12.53c.21-.43.48-.85.8-1.29.32-.43.59-.96.8-1.61,0-.64.21-1.01.64-1.13.43-.11.64-.48.64-1.12h2.89c.64,0,.96-.32.96-.96.21-.21.48-.27.8-.16.32.11.48-.05.48-.48,2.78.22,5.73.27,8.84.16,3.1-.11,6.27-.16,9.48-.16.43,0,.8.11,1.13.32.32.22.64.43.96.64.32.22.69.43,1.12.64.43.22.96.22,1.61,0,1.07.43,1.66.38,1.77-.16.11-.53.48-.8,1.13-.8h4.18c.43-.21.75-.27.96-.16.21.11.37.27.48.48.11.22.27.38.48.48.21.11.43.16.64.16.64.22.96.06.96-.48s.21-.69.64-.48c.21-.21.43-.37.64-.48.21-.11.53-.27.96-.48.43.22.75.16.96-.16.21-.32.43-.27.64.16.85.22,1.71.32,2.57.32h3.21c.43.22.85.16,1.29-.16.43-.32.85-.48,1.29-.48,1.07-.21,2.03-.21,2.89,0,.85.22,1.71.43,2.57.64h19.93c.85,0,1.5.16,1.93.48.43.32.85.59,1.29.8.85.22,1.34.11,1.45-.32.11-.43.59-.53,1.45-.32.43-.21.75-.21.96,0,.21.22.37.43.48.64.1.22.27.38.48.48.21.11.53.06.96-.16.85.22,1.39.06,1.61-.48.21-.53.64-.91,1.29-1.13,2.78-.21,5.41-.21,7.87,0,2.46.22,5.3.22,8.52,0,.21.22.43.43.64.64.21.22.32.54.32.96.21.22.53.32.96.32s.64.22.64.64c.43.43.8.8,1.13,1.13.32.32.69.7,1.13,1.12ZM740.22,120.2c.64-.21.85-.37.64-.48-.22-.11-.54-.16-.96-.16s-.86.06-1.29.16c-.43.11-.54.27-.32.48.64.22,1.01.32,1.13.32.1,0,.37-.11.8-.32ZM807.39,118.59c.43.22,1.07.38,1.93.48.85.11,1.29-.27,1.29-1.13h-2.09c-.75,0-1.13.22-1.13.64ZM818.64,118.27c0,.86.37,1.29,1.12,1.29s1.13-.43,1.13-1.29c-.21-.21-.59-.32-1.13-.32s-.91.11-1.12.32Z"/>
      <path class="cls-1" d="M837.6,116.82c.85-.11,1.61-.16,2.25-.16.64.22,1.01.06,1.13-.48.11-.53.48-.8,1.13-.8,1.29-.21,2.3-.11,3.05.32.75.43,1.55.75,2.41.96,1.71-.21,3.26-.21,4.66,0,1.39.22,2.84.32,4.34.32.85,0,1.45-.32,1.77-.96.32-.64,1.01-.96,2.09-.96h1.29c.64,0,1.01.11,1.13.32.11.22.37.22.8,0,.21.22.32.54.32.96s.32.54.96.32h2.25c.21-.21.32-.48.32-.8s.32-.48.96-.48h2.89c.21.43.43.75.64.96.21.22.53.32.96.32,2.78-.21,5.25-.27,7.39-.16,2.14.11,4.6.16,7.39.16,1.07-.21,1.61.11,1.61.96.43-.64,1.39-.91,2.89-.8,1.5.11,2.89.06,4.18-.16.64,0,1.23-.16,1.77-.48.53-.32,1.13-.59,1.77-.8.85.86,1.87,1.34,3.05,1.45,1.18.11,2.3.27,3.38.48.64,0,1.34-.05,2.09-.16.75-.11,1.45-.37,2.09-.8.43-.43.69-.59.8-.48.11.11.59.38,1.45.8.21.22.48.32.8.32s.59.11.8.32c.21.43.64.7,1.29.8.64.11,1.18.38,1.61.8,1.07-.21,2.09-.37,3.05-.48.96-.11,1.87-.37,2.73-.8.64-.21,1.13-.53,1.45-.96.32-.43.69-.85,1.13-1.29,1.5,0,3.1.06,4.82.16,1.71.11,3.1-.05,4.18-.48.21.86.75,1.4,1.61,1.61h3.54c.85.22,1.39.06,1.61-.48.21-.53.64-.91,1.29-1.12,1.29.22,2.25.75,2.89,1.61,1.5,0,2.94-.05,4.34-.16,1.39-.11,2.78-.27,4.18-.48,1.39-.21,2.73-.43,4.02-.64,1.29-.21,2.78-.32,4.5-.32.85,0,1.34.27,1.45.8.1.54.59.7,1.45.48.43,0,.69-.11.8-.32.1-.21.27-.43.48-.64h.48c.11,0-.8-.11-2.73-.32,6.43.22,10.82.22,13.18,0,.64.43,1.23.8,1.77,1.12.53.32,1.13.59,1.77.8,0,.64.21,1.07.64,1.29.43,2.14,1.07,3.65,1.93,4.5-.22,1.07-.16,1.98.16,2.73.32.75.59,1.56.8,2.41-.22.86-.54,1.56-.96,2.09-.43.54-.64,1.34-.64,2.41-.64-.21-.96-.11-.96.32s-.11.75-.32.96c-.43,0-.64.11-.64.32-1.07,0-2.09-.05-3.05-.16-.96-.11-1.88-.27-2.73-.48-3.86.43-7.23.43-10.12,0-2.89-.43-6.16-.75-9.8-.96-.43.22-.75.43-.96.64s-.54.43-.96.64c-.86.22-1.4.75-1.61,1.61-.22.86-.75,1.4-1.61,1.61.21.64.16,1.07-.16,1.29-.32.22-.59.64-.8,1.29,0,.22-.16.38-.48.48-.32.11-.59.27-.8.48v3.21c0,.86.32,1.61.96,2.25-.21.86-.32,1.61-.32,2.25s.21,1.4.64,2.25c-.43,1.07-.86,2.3-1.29,3.7-.43,1.4-.54,3.05-.32,4.98,0,.86.27,1.5.8,1.93.53.43.8,1.07.8,1.93.21.86.05,1.29-.48,1.29s-.91.32-1.13.96c0,1.29-.11,2.3-.32,3.05-.22.75-.11,1.66.32,2.73,0,.64-.21,1.07-.64,1.29-.43.22-.64.64-.64,1.29v4.02c0,1.18-.32,2.09-.96,2.73-.22.64-.16.96.16.96s.48.22.48.64c0,.86-.16,1.45-.48,1.77-.32.32-.59.7-.8,1.13.21,1.07.53,1.98.96,2.73.43.75.53,1.88.32,3.37.21.43.16.7-.16.8-.32.11-.48.27-.48.48,0,.43-.11.7-.32.8-.21.11-.32.38-.32.8-.22.22-.22.38,0,.48.21.11.43.16.64.16s.37.06.48.16c.11.11.16.27.16.48.43,1.29.64,2.68.64,4.18s-.06,3.05-.16,4.66c-.11,1.61-.16,3.21-.16,4.82s.32,3.05.96,4.34c.21.86.11,1.45-.32,1.77-.43.32-.64.8-.64,1.45v8.36c0,.43.05.75.16.96.1.22.21.38.32.48.1.11.27.27.48.48.21.22.32.43.32.64-.21,2.57-.16,4.82.16,6.75.32,1.93.27,3.97-.16,6.11.21.64.05.91-.48.8-.54-.11-.7.16-.48.8-.22,0-.27.16-.16.48.1.32-.06.48-.48.48v4.82c.21,1.07.59,1.88,1.13,2.41.53.54.69,1.45.48,2.73.21.64.43,1.07.64,1.29.21.22.53.54.96.96,0,.86.1,1.66.32,2.41.21.75.21,1.66,0,2.73.21.64.53,1.13.96,1.45.43.32.85.7,1.29,1.13-.22.43-.16.75.16.96.32.22.37.64.16,1.29.21.22.53.48.96.8.43.32.75.7.96,1.13.21.22.48.38.8.48.32.11.37.59.16,1.45.64.22,1.18.75,1.61,1.61,1.07.86,2.25,1.5,3.54,1.93,1.29.43,2.35,1.18,3.21,2.25.85-.21,1.39,0,1.61.64,1.29.22,2.41.59,3.37,1.13.96.54,1.34,1.56,1.13,3.05-.86.64-1.66.91-2.41.8-.75-.11-1.56-.05-2.41.16-.43-.21-.64-.48-.64-.8s-.22-.59-.64-.8c0-.43-.16-.69-.48-.8-.32-.11-.48-.37-.48-.8-1.93.43-3-.11-3.21-1.61-1.29,0-2.36-.21-3.21-.64-.86-.43-1.82-.64-2.89-.64-.43-.43-.59-1.07-.48-1.93.11-.85-.05-1.39-.48-1.61-.22-.43-.7-.59-1.45-.48-.75.11-1.34.16-1.77.16-.64.22-.96.11-.96-.32s-.11-.75-.32-.96c-.64,0-1.07-.21-1.29-.64-1.5-.21-2.63-.75-3.37-1.61-.75-.85-1.77-1.39-3.05-1.61-.21-.21-.48-.37-.8-.48-.32-.11-.7-.27-1.13-.48-.43-.64-.54-1.07-.32-1.29.21-.21.21-.75,0-1.61-1.07-1.29-2.14-2.35-3.21-3.21h-4.18c-.64-.43-1.45-.75-2.41-.96-.96-.21-1.56-.75-1.77-1.61-.86.22-1.45.27-1.77.16-.32-.11-.8-.27-1.45-.48-.43-.64-1.02-1.07-1.77-1.29-.75-.21-1.24-.75-1.45-1.61-.64.22-1.24.22-1.77,0-.54-.21-.96-.43-1.29-.64-.32-.21-.7-.37-1.13-.48-.43-.11-1.07-.16-1.93-.16-.21-.85-.7-1.34-1.45-1.45-.75-.11-1.34-.48-1.77-1.13-.64.22-1.29.27-1.93.16-.64-.11-1.07.06-1.29.48-1.07-.21-1.61-.75-1.61-1.61-.86-.43-1.4-.85-1.61-1.29-.64-.21-1.34-.43-2.09-.64-.75-.21-1.56-.43-2.41-.64-.64.22-.96.16-.96-.16s-.11-.59-.32-.8c-.64.22-1.07.16-1.29-.16-.21-.32-.64-.37-1.29-.16-.21-.43-.43-.75-.64-.96-.22-.21-.64-.32-1.29-.32-.43-.21-.7-.48-.8-.8-.11-.32-.38-.59-.8-.8-1.29-.21-2.63-.21-4.02,0-1.4.22-2.52,0-3.38-.64-.22-.21-.43-.53-.64-.96-.21-.43-.43-.85-.64-1.29-1.29,0-2.25-.27-2.89-.8-.64-.53-1.72-.69-3.21-.48-.21-.21-.54-.48-.96-.8-.43-.32-.96-.59-1.61-.8-1.07,0-1.93.11-2.57.32-.64.22-1.29.43-1.93.64-.86-.64-1.77-1.18-2.73-1.61-.96-.43-1.66-1.07-2.09-1.93h-2.25c-.21-.85-.75-1.34-1.61-1.45-.86-.11-1.5-.48-1.93-1.13,0-.43-.11-.59-.32-.48-.21.11-.43.06-.64-.16-.64-.21-1.07-.53-1.29-.96-.22-.43-.86-.53-1.93-.32-.22-.64-.54-1.13-.96-1.45-.43-.32-.96-.59-1.61-.8-.22-.64-.54-1.01-.96-1.12-.43-.11-.64-.59-.64-1.45-.21-.43-.54-.69-.96-.8-.43-.11-.75-.48-.96-1.13-.64-.64-1.18-1.34-1.61-2.09-.43-.75-1.07-1.45-1.93-2.09-.22-1.29-.64-2.3-1.29-3.05-.64-.75-.96-1.77-.96-3.05,0-1.07.64-1.61,1.93-1.61.43-.64.96-1.29,1.61-1.93v-2.89c.43-.85.96-1.66,1.61-2.41.64-.75,1.5-1.34,2.57-1.77-.21-.43-.16-.64.16-.64s.48-.11.48-.32c.43,0,.64-.16.64-.48s.21-.48.64-.48c.85-.64,1.71-.96,2.57-.96.21-.43.37-.91.48-1.45.11-.53.27-1.01.48-1.45.43.22.64.16.64-.16s.11-.59.32-.8c.21-.21.37-.27.48-.16.1.11.27.16.48.16.21-.21.43-.48.64-.8.21-.32.53-.59.96-.8.43-.43.91-.91,1.45-1.45.53-.53.91-1.12,1.13-1.77.64,0,.96-.21.96-.64.21-.21.64-.32,1.29-.32s1.07-.11,1.29-.32c.21-.43.43-.8.64-1.13.21-.32.64-.37,1.29-.16,0-.43.11-.75.32-.96s.43-.37.64-.48c.21-.11.43-.21.64-.32.21-.11.32-.37.32-.8.43-.21.85-.43,1.29-.64.43-.21.75-.53.96-.96h2.25c.85-.85,1.71-1.55,2.57-2.09.85-.53,1.71-1.13,2.57-1.77.21-.43.37-.91.48-1.45.1-.53.48-.8,1.13-.8.43-.21.75-.27.96-.16.21.11.37.27.48.48.1.22.21.38.32.48.1.11.37.16.8.16.21,0,.37-.21.48-.64.1-.43.27-.75.48-.96.21-.43.16-.8-.16-1.13-.32-.32-.27-.59.16-.8.43-.21.91-.43,1.45-.64.53-.21,1.01-.11,1.45.32.64-.21,1.18-.53,1.61-.96.43-.43.96-.64,1.61-.64.64-.43,1.13-.96,1.45-1.61s.69-1.17,1.13-1.61c1.07-.64,2.03-1.39,2.89-2.25s1.93-1.39,3.21-1.61c.64-.43,1.07-.91,1.29-1.45.21-.53.53-1.01.96-1.45h3.86c.85-.21,1.55-.53,2.09-.96.53-.43,1.34-.64,2.41-.64.85-.21,1.61-.53,2.25-.96.64-.43,1.39-.75,2.25-.96.43.22.75.43.96.64.21.22.48.48.8.8.32.32.59.59.8.8.21.22.64.32,1.29.32.21-.43.53-.64.96-.64.64-.43,1.01-1.23,1.13-2.41.1-1.17.48-1.98,1.13-2.41-.22-2.57-.32-4.82-.32-6.75s.11-4.07.32-6.43c-.43-.43-.8-.91-1.13-1.45-.32-.53-.91-.8-1.77-.8,0-.85-.21-1.39-.64-1.61-.43-.21-.75-.53-.96-.96-.22-.43-.54-.75-.96-.96-.43-.21-.86-.43-1.29-.64-.86-.21-1.45-.16-1.77.16-.32.32-.8.48-1.45.48-1.07-.21-2.04-.48-2.89-.8-.86-.32-1.61-.69-2.25-1.12-1.29.22-2.25.59-2.89,1.12-.64.54-1.4,1.13-2.25,1.77-1.07,0-2.3-.05-3.7-.16-1.4-.11-2.3.27-2.73,1.13-.64-.21-1.18-.48-1.61-.8-.43-.32-.96-.59-1.61-.8-1.29,0-2.47.11-3.54.32-1.07.22-2.09.43-3.05.64-.96.22-1.98.43-3.05.64-1.07.22-2.25.32-3.53.32,0-.21-.06-.32-.16-.32h-.48c-.64.22-.96.06-.96-.48s-.21-.69-.64-.48c-1.5,0-3-.05-4.5-.16-1.5-.11-2.68.16-3.53.8-.43-.64-1.18-.91-2.25-.8-1.07.11-2.14.16-3.21.16-.43-.21-.7-.16-.8.16-.11.32-.38.48-.8.48.21.22.21.32,0,.32h-1.29c-.21,0-.21.11,0,.32h-18.64c-.64-.21-1.13-.11-1.45.32-.32.43-.8.54-1.45.32-.86.22-1.4.22-1.61,0-.21-.21-.75-.32-1.61-.32-.86-.21-1.34-.11-1.45.32-.11.43-.48.64-1.13.64h-4.5c-.64,0-1.13-.27-1.45-.8-.32-.53-.91-.69-1.77-.48-.43-.85-.96-1.71-1.61-2.57-.64-.85-1.18-1.82-1.61-2.89.43-1.07.59-2.46.48-4.18-.1-1.71-.16-3.21-.16-4.5.43-1.07.8-2.14,1.13-3.21.32-1.07.38-2.35.16-3.86.86-.21,2.25-.43,4.18-.64v-.64c0-.21.11-.37.32-.48.21-.11.32-.27.32-.48h2.57c.85,0,1.5.22,1.93.64.64,0,1.07.27,1.29.8.21.54.75.59,1.61.16.21.43.75.59,1.61.48ZM869.09,228.5h-1.61c-.64,0-.96.11-.96.32.43,0,.96.06,1.61.16.64.11.96-.05.96-.48ZM872.63,230.43c-.22-1.5-1.29-2.14-3.21-1.93-.22,1.07.11,1.77.96,2.09.85.32,1.61.27,2.25-.16ZM880.98,217.25c.21.43.69.64,1.45.64s1.13-.32,1.13-.96c-.22-.21-.7-.32-1.45-.32s-1.13.22-1.13.64ZM922.12,176.44c-.22.64-.54,1.24-.96,1.77-.43.54-.86,1.12-1.29,1.77-.64-.21-1.02-.11-1.13.32-.11.43-.48.64-1.13.64-.22.43-.54.7-.96.8-.43.11-.75.38-.96.8-.22.43-.96.64-2.25.64-.22.43-.43.75-.64.96-.21.22-.64.32-1.29.32,0,.64-.32.86-.96.64-.22.64-.22,1.4,0,2.25-1.29.43-2.2,1.24-2.73,2.41-.54,1.18-1.24,2.2-2.09,3.05-.86.22-1.56.59-2.09,1.13-.54.54-1.34.7-2.41.48-.43.43-.7.96-.8,1.61-.11.64-.27,1.18-.48,1.61-.86.22-1.45.64-1.77,1.29s-.91,1.07-1.77,1.29c-.43.86-.96,1.56-1.61,2.09-.64.54-1.29,1.24-1.93,2.09-.86,0-1.56.22-2.09.64-.54.43-1.24.75-2.09.96.21,1.29-.22,1.93-1.29,1.93,0,.64-.06,1.13-.16,1.45-.11.32-.27.59-.48.8-.21.22-.43.43-.64.64-.22.22-.32.54-.32.96-.43,1.29-.38,2.09.16,2.41.53.32.8,1.02.8,2.09.85,0,1.39.27,1.61.8.21.54.75.8,1.61.8.43.22.8.54,1.13.96.32.43.91.64,1.77.64,1.29,1.5,2.68,2.89,4.18,4.18h2.57c.64.64,1.39,1.13,2.25,1.45.85.32,1.5.8,1.93,1.45,1.29-.21,2.25-.05,2.89.48.64.54,1.39,1.02,2.25,1.45.21,1.07.53,1.88.96,2.41.43.54.64,1.56.64,3.05.85.43,1.29,1.29,1.29,2.57.64-.21,1.13-.16,1.45.16.32.32.8.48,1.45.48.21.43.48.7.8.8.32.11.59.38.8.8.21.43.53.7.96.8.43.11.64.48.64,1.13.21.22.48.27.8.16.32-.11.48-.05.48.16.85.22,1.55.22,2.09,0,.53-.21,1.23-.32,2.09-.32.43-.85,1.07-1.5,1.93-1.93.85-.43,1.71-.85,2.57-1.29,0-2.14-.16-4.12-.48-5.95-.32-1.82-.59-3.59-.8-5.3-.86-.85-1.4-1.93-1.61-3.21,0-1.07.21-2.03.64-2.89.43-.85.75-1.82.96-2.89v-4.02c0-1.39.21-2.41.64-3.05-.43-1.29-.75-2.78-.96-4.5-.22-.64-.32-1.18-.32-1.61s-.11-.85-.32-1.29c.64-.85,1.07-1.87,1.29-3.05.21-1.18.53-2.19.96-3.05-.22-.64-.43-1.18-.64-1.61-.22-.43-.43-.85-.64-1.28.21-2.14.32-4.07.32-5.78s-.11-3.64-.32-5.78c-.22-.43-.59-.75-1.13-.96-.54-.21-.7-.64-.48-1.29,0-.85.27-1.39.8-1.61.53-.21.69-.85.48-1.93-.64-.43-1.34-.53-2.09-.32-.75.22-1.45.32-2.09.32ZM920.84,246.5c.21.22.53.38.96.48.43.11.85.16,1.29.16.21-.85.37-1.71.48-2.57.1-.85-.27-1.29-1.13-1.29,0,.86-.22,1.45-.64,1.77-.43.32-.75.8-.96,1.45ZM968.08,129.84c0,.43.11.75.32.96.64,0,1.13-.05,1.45-.16.32-.11.48-.37.48-.8-.43,0-.8-.11-1.13-.32-.32-.21-.7-.11-1.13.32Z"/>
      <path class="cls-1" d="M1115.27,99.95c.21-.21.43-.37.64-.48.21-.11.43-.05.64.16,0,1.29.05,2.52.16,3.7.1,1.18.27,2.36.48,3.53.21,1.18.59,2.25,1.13,3.21.53.96,1.34,1.66,2.41,2.09.85-.43,1.82-.37,2.89.16,1.07.54,2.03,1.02,2.89,1.45,1.07-.21,2.09-.27,3.05-.16.96.11,2.09.06,3.38-.16.21-.21.64-.32,1.29-.32s1.39.11,2.25.32c.43,0,.69.16.8.48.11.32.21.64.32.96.1.32.27.48.48.48s.64-.43,1.29-1.29c.85,0,1.55-.16,2.09-.48.53-.32,1.34-.37,2.41-.16.43.22.75.59.96,1.13.21.54.43,1.02.64,1.45.43.43.8.8,1.12,1.13.32.32.69.59,1.13.8.21,1.29.53,2.41.96,3.37.43.96.75,2.09.96,3.37,0,.64-.16,1.07-.48,1.29-.32.22-.59.64-.8,1.29.21,1.07.16,1.98-.16,2.73-.32.75-.38,1.66-.16,2.73,0,.64-.22,1.12-.64,1.45-.43.32-.54,1.02-.32,2.09-.64.22-1.29.48-1.93.8-.64.32-.96.91-.96,1.77-.64.22-1.24.48-1.77.8-.54.32-1.02.59-1.45.8-.86-1.07-1.61-1.71-2.25-1.93-.64-.21-1.24-.32-1.77-.32s-.96.06-1.29.16c-.32.11-.7.16-1.13.16-1.72.22-3.32.38-4.82.48-1.5.11-3-.05-4.5-.48-.64-.21-1.4-.43-2.25-.64-.86-.21-1.61-.53-2.25-.96-1.07.22-1.98.48-2.73.8-.75.32-1.56.7-2.41,1.13-.86-.21-1.61-.43-2.25-.64-.64-.21-1.4-.32-2.25-.32-.86.22-1.61.32-2.25.32s-1.18.22-1.61.64c-1.72-.43-3.32-.8-4.82-1.13-1.5-.32-3.32-.37-5.46-.16,0-1.29-.11-2.41-.32-3.37-.22-.96-.22-1.98,0-3.05-1.29,0-1.88.43-1.77,1.29.1.86.27,1.61.48,2.25-.86.22-1.29.96-1.29,2.25-.86,0-1.61.11-2.25.32-.64.22-1.4.43-2.25.64-.64-.21-1.29-.53-1.93-.96-1.07.22-2.09.43-3.05.64-.96.22-1.98.43-3.05.64-.64-.21-.96-.05-.96.48s-.43.7-1.29.48c-.86.22-1.5.11-1.93-.32-.43-.43-.96-.64-1.61-.64-2.57-.21-4.93-.27-7.07-.16-2.15.11-4.39.16-6.75.16-.86-.21-1.88-.32-3.05-.32s-2.52.11-4.02.32c-.43,0-.75.16-.96.48-.21.32-.43.59-.64.8-.64,0-1.13.11-1.45.32-.32.22-.7.43-1.13.64-.64-.21-1.18-.43-1.61-.64-.43-.21-.96-.43-1.61-.64-.86.22-1.82.27-2.89.16-1.07-.11-1.72.16-1.93.8-.43-.21-.8-.37-1.13-.48-.32-.11-.8-.16-1.45-.16-.64-.21-.91-.05-.8.48.11.54-.16.8-.8.8-1.07.22-2.04.43-2.89.64-.86.22-1.72.43-2.57.64-.86,0-1.45-.16-1.77-.48-.32-.32-.8-.59-1.45-.8-.64,0-1.07.27-1.29.8-.22.54-.75.7-1.61.48-.86.22-1.4.11-1.61-.32-.21-.43-.54-.75-.96-.96h-1.13c-.32,0-.48-.11-.48-.32-1.72.22-3.37.27-4.98.16-1.61-.11-3.27-.05-4.98.16-1.07-.21-2.09-.53-3.05-.96-.96-.43-2.2-.53-3.7-.32-.43-.21-.75-.59-.96-1.13-.22-.53-.64-.8-1.29-.8-1.29-.43-2.09-.32-2.41.32s-.8,1.07-1.45,1.29c-1.5-.21-3.21-.32-5.14-.32-.43-.21-.7-.59-.8-1.13-.11-.53-.59-.8-1.45-.8-.86.22-1.45.7-1.77,1.45-.32.75-.8,1.45-1.45,2.09-1.07.22-1.88.11-2.41-.32-.54-.43-1.24-.75-2.09-.96-.64.22-1.18.43-1.61.64-.43.22-.96.43-1.61.64-1.29-.43-2.79-.37-4.5.16-1.72.54-3.53.59-5.46.16.43-.43.96-.75,1.61-.96.64-.21,1.18-.43,1.61-.64-.21-.64-.48-1.18-.8-1.61-.32-.43-.91-.64-1.77-.64-.64,0-1.13.11-1.45.32-.32.22-.59.48-.8.8-.21.32-.48.64-.8.96-.32.32-.69.48-1.13.48-.85,0-1.29-.43-1.29-1.29.22-.85.11-1.34-.32-1.45-.43-.11-.75-.27-.96-.48,0-.85.22-1.5.64-1.93.43-.43.54-1.07.32-1.93,0-.64-.16-.96-.48-.96s-.48-.11-.48-.32c-.21,0-.32-.11-.32-.32s-.1-.32-.32-.32c0-1.07-.32-1.71-.96-1.93,0-1.93-.05-3.48-.16-4.66-.11-1.18-.05-2.62.16-4.34.64-.21,1.02-.53,1.13-.96.11-.43.27-.85.48-1.29.64-.21,1.13-.53,1.45-.96.32-.43.91-.75,1.77-.96,1.5.22,2.79.48,3.86.8,1.07.32,2.14.7,3.21,1.13h2.57c.85,0,1.61.11,2.25.32.43-.21.85-.32,1.29-.32s.85-.11,1.29-.32c1.29.22,2.57.27,3.86.16,1.29-.11,2.57-.21,3.86-.32,1.29-.11,2.57-.16,3.86-.16s2.46.22,3.54.64c2.14-.43,4.5-.64,7.07-.64h7.71c.43.43,1.18.75,2.25.96.21.22.43.54.64.96.21.43.75.54,1.61.32.64,0,1.01-.27,1.13-.8.11-.53.27-.91.48-1.13.43.22.64.11.64-.32.85,0,1.29-.21,1.29-.64,1.29-.21,2.35-.16,3.21.16.85.32,1.82.48,2.89.48.43,0,.85-.16,1.29-.48.43-.32.85-.59,1.29-.8.85-.43,2.14-.59,3.86-.48,1.71.11,3.21.38,4.5.8,1.07-.64,2.52-.91,4.34-.8,1.82.11,3.16.48,4.02,1.13,1.07.22,2.25.27,3.53.16,1.29-.11,2.14.16,2.57.8.85,0,1.39-.27,1.61-.8.21-.53.64-.91,1.29-1.12.85-.21,1.5-.27,1.93-.16.43.11,1.18.16,2.25.16,1.29-.64,2.84-1.13,4.66-1.45,1.82-.32,3.59-.27,5.3.16.64-.21,1.29-.32,1.93-.32s1.18-.11,1.61-.32c3.86.43,7.6.59,11.25.48,3.64-.11,7.6-.16,11.89-.16.43-.21.69-.53.8-.96.11-.43.48-.64,1.13-.64,0-1.07.21-2.03.64-2.89-.43-1.5-.64-3.21-.64-5.14s.11-3.75.32-5.46c.21-.64.1-.91-.32-.8-.43.11-.64-.16-.64-.8-.22-.21-.43-.64-.64-1.29-.21-.64-.54-.96-.96-.96,0-.64-.16-1.07-.48-1.29-.32-.21-.38-.75-.16-1.61-.22-.43-.48-.85-.8-1.29-.32-.43-.48-1.07-.48-1.93,0-.43-.22-.69-.64-.8-.43-.11-.75-.27-.96-.48v-1.93c-.22-.43-.54-.69-.96-.8-.43-.11-.64-.48-.64-1.12-.86-.21-1.34-.05-1.45.48-.11.54-.48.8-1.13.8h-1.93c-.64,0-1.18-.11-1.61-.32-.22-.64-.38-1.23-.48-1.77-.11-.53-.38-1.01-.8-1.45-1.5.22-3.05.7-4.66,1.45-1.61.75-3.16.8-4.66.16-.64-.21-1.29-.48-1.93-.8s-1.4-.69-2.25-1.12c-.64.22-1.24.43-1.77.64-.54.22-1.24.32-2.09.32-.43.22-.7.22-.8,0-.11-.21-.22-.43-.32-.64-.11-.21-.22-.43-.32-.64-.11-.21-.38-.21-.8,0-.64-.21-1.02-.16-1.13.16-.11.32-.38.48-.8.48,0,.22-.05.32-.16.32h-1.13c-.21,0-.21.11,0,.32-1.5-.43-2.84-.96-4.02-1.61-1.18-.64-2.3-1.29-3.37-1.93-.22-.43-.06-.59.48-.48.53.11.8-.05.8-.48v-3.37c0-.53-.11-1.01-.32-1.45-.21-.43-.54-.75-.96-.96-.64,0-1.02.22-1.13.64-.11.43-.38.75-.8.96-.21,1.07-.16,1.82.16,2.25.32.43.48,1.07.48,1.93-.86,0-1.4-.27-1.61-.8-.22-.53-.75-.8-1.61-.8,0-.21-.11-.48-.32-.8-.22-.32-.43-.59-.64-.8-.22-.21-.43-.37-.64-.48-.22-.11-.54-.27-.96-.48-.86-.21-1.29,0-1.29.64s-.32.96-.96.96c-1.29-.21-2.15-.64-2.57-1.29-.43-.64-1.4-.85-2.89-.64l-1.61-1.61c-.64,0-1.02.16-1.13.48-.11.32-.48.38-1.13.16-.64-.21-1.29-.43-1.93-.64-.64-.21-1.4-.21-2.25,0-.21-.43-.59-.75-1.13-.96-.54-.21-1.02-.53-1.45-.96-1.07-.64-1.93-1.29-2.57-1.93-1.5.22-2.52,0-3.05-.64-.54-.64-1.13-1.07-1.77-1.29,0-.64.16-1.13.48-1.45.32-.32.48-.91.48-1.77,0-.21-.21-.32-.64-.32s-.75-.11-.96-.32c-.43-.21-.75-.21-.96,0-.21.22-.38.48-.48.8-.11.32-.27.59-.48.8-.22.22-.54.22-.96,0-.86,0-1.34-.37-1.45-1.13-.11-.75-.48-1.34-1.13-1.77-.43,0-.91-.11-1.45-.32-.54-.21-1.24-.21-2.09,0-.64-.21-1.02-.59-1.13-1.13-.11-.53-.27-.91-.48-1.13-.64-.21-1.07-.53-1.29-.96-.22-.43-.43-.75-.64-.96,0-.64.27-1.01.8-1.13.53-.11.91-.37,1.13-.8-.22-.64-.75-.91-1.61-.8-.86.11-1.61.06-2.25-.16-.86,0-1.4-.27-1.61-.8-.22-.53-.86-.8-1.93-.8-.21,0-.38-.16-.48-.48-.11-.32-.27-.59-.48-.8-.86.22-1.45,0-1.77-.64s-.91-.96-1.77-.96l-1.61-3.21h-2.25c-.22-.43-.59-.75-1.13-.96-.54-.21-1.02-.64-1.45-1.29-.43.22-.64.16-.64-.16s-.11-.59-.32-.8c-.22-.43-.48-.64-.8-.64s-.59-.11-.8-.32c.21-.85.05-1.39-.48-1.61-.54-.21-.7-.75-.48-1.61-.86-1.29-1.77-2.41-2.73-3.38-.96-.96-1.56-2.3-1.77-4.02.43-.43.69-.85.8-1.29.11-.43.37-.85.8-1.29.21,0,.37.16.48.48.11.32.21.59.32.8.1.22.21.43.32.64.1.22.37.32.8.32s.59-.27.48-.8c-.11-.53-.16-1.01-.16-1.45s-.32-.64-.96-.64h-1.61c-.64.22-1.02.06-1.13-.48-.11-.53-.38-.91-.8-1.13-.21-.85,0-1.34.64-1.45.64-.11,1.07-.48,1.29-1.13-.22-.64-.59-1.13-1.13-1.45-.54-.32-1.02-.8-1.45-1.45,0-.64-.11-1.17-.32-1.61-.21-.43-.32-.96-.32-1.61,0-.85.16-1.45.48-1.77.32-.32.59-.8.8-1.45.64-.21,1.13-.21,1.45,0,.32.22.69.32,1.13.32.21.64.48,1.34.8,2.09.32.75.16,1.34-.48,1.77-.64.22-.91.06-.8-.48.1-.53-.27-.69-1.13-.48-.43.43-.54,1.07-.32,1.93.21.86.75,1.18,1.61.96.43.22.69.22.8,0,.1-.21.16-.48.16-.8s.05-.59.16-.8c.1-.21.37-.32.8-.32.43.43.64.91.64,1.45s.43.7,1.29.48v3.21c.43.64.91,1.07,1.45,1.29.53.22,1.13.54,1.77.96,0,1.07.27,1.98.8,2.73.53.75.91,1.66,1.13,2.73.64,1.07,1.45,1.98,2.41,2.73.96.75,1.87,1.56,2.73,2.41h2.89c1.07.43,2.09.86,3.05,1.29.96.43,2.2.54,3.7.32,1.07.64,2.41,1.07,4.02,1.29,1.61.22,3.16.64,4.66,1.29h7.71c.21.22.43.48.64.8.21.32.53.48.96.48.21.43.48.7.8.8.32.11.59.38.8.8.43.22.91.43,1.45.64.53.22,1.01.43,1.45.64,1.5-.21,2.73-.16,3.7.16.96.32,2.19.38,3.7.16.64,0,1.01.22,1.13.64.11.43.48.64,1.13.64h1.93c.85,0,1.45-.21,1.77-.64.32-.43,1.01-.64,2.09-.64,0,.22.16.32.48.32h.8c0,1.07.32,2.14.96,3.21.85.22,1.71.43,2.57.64.85.22,1.61.64,2.25,1.29,1.07,0,1.98.11,2.73.32.75.22,1.45.54,2.09.96h4.5c.21.43.48.59.8.48.32-.11.59-.05.8.16.21.43.64.75,1.29.96.64.22,1.18.54,1.61.96l.96.96c.21.22.48.32.8.32s.48.22.48.64c.85-.21,1.55-.21,2.09,0,.53.22,1.23.32,2.09.32.85.43,1.29,1.18,1.29,2.25s.43,1.82,1.29,2.25c1.29,0,2.19-.32,2.73-.96.53-.64,1.34-1.07,2.41-1.29.85.22,1.5.59,1.93,1.13.43.54.85,1.13,1.29,1.77.85.22,1.66.59,2.41,1.12.75.54,1.23,1.34,1.45,2.41.85,0,1.5.16,1.93.48.43.32,1.07.48,1.93.48.43.43.85.86,1.29,1.28.43.43.96.64,1.61.64.43,1.29,1.07,2.31,1.93,3.05.85.75,1.71,1.56,2.57,2.41,1.71-.21,3.05-.05,4.02.48.96.54,2.2.91,3.7,1.12.43.64.85,1.34,1.29,2.09.43.75,1.07,1.12,1.93,1.12.21.43.43.75.64.96.21.22.32.54.32.96.21.43.59.7,1.13.8.53.11.91.27,1.13.48.85,1.29,1.07,2.63.64,4.02-.43,1.4-.54,2.95-.32,4.66.21.64.53,1.07.96,1.28.43.22.64.75.64,1.61.21.64.53,1.07.96,1.29.21.22.27.48.16.8-.11.32.05.59.48.8-.22.22-.38.38-.48.48-.11.11-.16.27-.16.48.21.64.05.96-.48.96s-.7.32-.48.96c.21.64.1.96-.32.96s-.64.22-.64.64h.64ZM973.86,120.84c.64.22,1.07-.11,1.29-.96-.22-.21-.54-.27-.96-.16-.43.11-.53.48-.32,1.12ZM985.11,4.5c-.21.43-.7.64-1.45.64s-1.24-.21-1.45-.64c.21-.64.32-1.34.32-2.09s.11-1.55.32-2.41c.64,0,1.01.22,1.13.64.1.43.16.86.16,1.29.21.64.43,1.12.64,1.45.21.32.32.7.32,1.13ZM988,119.88c-.86-.43-1.56-.43-2.09,0-.54.43-.8,1.07-.8,1.93.43.43.91.59,1.45.48.53-.11,1.01-.27,1.45-.48v-1.93ZM990.57,39.21c0-.64.16-1.07.48-1.29.32-.21.59-.64.8-1.29,0-.43-.11-.91-.32-1.45-.21-.53-.21-1.23,0-2.09-.21-.21-.59-.32-1.13-.32h-1.77c-.22.43-.32,1.02-.32,1.77v2.09c.21.22.48.32.8.32s.59.22.8.64c0,.22.05.48.16.8.11.32.27.59.48.8ZM1080.56,206.01c1.93-1.5,3.32-3.1,4.18-4.82-.43-1.5-.54-3.86-.32-7.07-1.72,1.07-2.14.43-1.29-1.93-1.5-.64-2.79-1.71-3.86-3.21-1.07-1.29-2.04-3-2.89-5.14-4.93-2.14-7.61-3.1-8.04-2.89-1.93-.21-3.75-.05-5.46.48-1.72.54-3.54.48-5.46-.16-.64,0-1.24.06-1.77.16-.54.11-1.02.27-1.45.48-.43-.21-.96-.32-1.61-.32s-1.29-.11-1.93-.32c-.64,0-1.18.11-1.61.32-.43.22-.96.22-1.61,0-.86.22-1.61.54-2.25.96-.64.43-1.5.54-2.57.32-.43.22-.75.48-.96.8-.22.32-.38.64-.48.96-.11.32-.21.59-.32.8-.11.22-.38.32-.8.32-.22,2.14-.96,3.75-2.25,4.82,0,.64.16,1.07.48,1.29.32.22.37.75.16,1.61-.21.86-.59,1.77-1.12,2.73-.54.96-.38,1.88.48,2.73,0,.64-.27,1.02-.8,1.13-.54.11-.8.38-.8.8,0,.86.21,1.4.64,1.61.43.22.85.54,1.29.96.43,0,.69-.11.8-.32.1-.21.21-.43.32-.64.11-.21.27-.43.48-.64.21-.21.43-.11.64.32.21,1.07.21,1.98,0,2.73-.22.75-.43,1.45-.64,2.09-.21.64-.43,1.29-.64,1.93-.22.64-.32,1.5-.32,2.57-.22.22-.48.38-.8.48-.32.11-.38.38-.16.8-.22.43-.59.59-1.13.48-.54-.11-.7.27-.48,1.13-.64-.21-1.07-.16-1.29.16-.22.32-.54.38-.96.16-.64,0-.91.27-.8.8.11.54-.16.7-.8.48-.22.22-.54.38-.96.48-.43.11-.64.38-.64.8-1.29,0-2.04-.11-2.25-.32-.43.43-.64.96-.64,1.61s-.21,1.07-.64,1.29c-.64,0-1.18-.16-1.61-.48-.43-.32-1.07-.37-1.93-.16-.86,0-1.5.27-1.93.8-.43.54-1.07.91-1.93,1.12-.22.43-.8.64-1.77.64s-1.56.43-1.77,1.29c-1.07-.21-1.82-.11-2.25.32-.43.43-1.18.75-2.25.96-.64-.21-1.24-.48-1.77-.8-.54-.32-1.07-.64-1.61-.96-.54-.32-1.02-.64-1.45-.96-.43-.32-.96-.48-1.61-.48-.64-1.28-1.82-2.14-3.54-2.57-.64-.85-1.4-1.61-2.25-2.25-.43-.43-.86-.8-1.29-1.13-.43-.32-.96-.59-1.61-.8-.21-.64-.48-1.23-.8-1.77-.32-.53-.59-1.23-.8-2.09-.64-.64-1.4-1.82-2.25-3.53,0-.85.11-1.55.32-2.09.21-.53.32-1.34.32-2.41-.22-.43-.64-.69-1.29-.8-.64-.11-1.29-.27-1.93-.48,0-1.07-.16-1.93-.48-2.57s-.7-1.39-1.13-2.25c-.22-1.07,0-1.61.64-1.61.21-.21.27-.53.16-.96-.11-.43.05-.64.48-.64-.22-1.5-.05-2.62.48-3.38.53-.75.91-1.77,1.13-3.05l1.29-1.29c.21-.21.37-.48.48-.8.1-.32.37-.48.8-.48.21-.64.37-1.23.48-1.77.1-.53.48-.91,1.13-1.13-.22-.64-.27-1.12-.16-1.45.11-.32.27-.8.48-1.45.43.22.69.16.8-.16.11-.32.27-.59.48-.8.43,0,.75-.21.96-.64l1.93-1.93c.85-.64,1.5-1.29,1.93-1.93.64-.21,1.07-.48,1.29-.8.21-.32.75-.48,1.61-.48.21-.43.32-.85.32-1.29s.11-.85.32-1.29c.64-.21,1.23-.43,1.77-.64.53-.21.8-.64.8-1.29,1.5,0,2.73-.21,3.7-.64.96-.43,1.98-.75,3.05-.96,1.29-1.07,2.57-2.19,3.86-3.37,1.29-1.18,2.89-1.98,4.82-2.41.64,0,1.01-.21,1.13-.64.1-.43.37-.64.8-.64.85,0,1.28-.11,1.28-.32h3.54c1.07-.43,2.19-.75,3.38-.96,1.18-.21,2.62-.21,4.34,0,.85-.43,1.55-.85,2.09-1.29.53-.43,1.34-.53,2.41-.32.64-.21.96-.64.96-1.29.64,0,.96-.11.96-.32,1.5.22,2.73.22,3.7,0,.96-.21,1.98-.21,3.05,0,.21.22.43.43.64.64.21.22.43.54.64.96.85-.21,1.5-.11,1.93.32,1.5,0,2.68-.11,3.53-.32.85,0,1.39.54,1.61,1.61.64-.21,1.07-.16,1.29.16.21.32.53.38.96.16.64,1.5,1.39,2.57,2.25,3.21.85.22,1.5.27,1.93.16.43-.11.85-.27,1.29-.48.85.86,1.98,1.5,3.37,1.93,1.39.43,2.84.75,4.34.96.64.64,1.34,1.24,2.09,1.77.75.54,1.34,1.24,1.77,2.09h1.61c.21.64.59,1.18,1.13,1.61.53.43,1.01.86,1.45,1.29.43,1.29.96,2.36,1.61,3.21.64.86,1.29,1.72,1.93,2.57l1.93,2.57c.64,1.29,1.18,2.57,1.61,3.86,1.93,3.43,3,6.22,3.21,8.36l.32.32v2.25c.21,1.07.59,1.82,1.13,2.25.53.43.91,1.18,1.13,2.25-.22.22-.64.32-1.29.32s-1.18-.11-1.61-.32c-.21.43-.38.96-.48,1.61-.11.64-.27,1.29-.48,1.93-.64,0-1.07.16-1.29.48-.22.32-.64.38-1.29.16,0,.86-.22,1.56-.64,2.09-.43.54-.64,1.24-.64,2.09-1.07,0-1.77.38-2.09,1.13-.32.75-.7,1.56-1.13,2.41-1.07,0-1.77.38-2.09,1.12-.32.75-1.02,1.13-2.09,1.13v3.54c-.22.64-.11.96.32.96s.64.22.64.64c.43,0,.59.27.48.8-.11.54.05.8.48.8.43-.21.96-.43,1.61-.64.64-.21,1.18-.53,1.61-.96-.22-1.29-.38-2.36-.48-3.21-.11-.85-.16-1.93-.16-3.21.64-.21,1.13-.43,1.45-.64.32-.21.8-.21,1.45,0,.21.64.27,1.34.16,2.09-.11.75-.59,1.24-1.45,1.45-.43.43-.64,1.02-.64,1.77s.21,1.34.64,1.77c.64-.43,1.13-.85,1.45-1.29.32-.43.59-.96.8-1.61.21-.85.59-1.39,1.13-1.61.53-.21.69-.85.48-1.93.64,0,1.01-.21,1.12-.64.11-.43.27-.85.48-1.29.21-.43.05-.75-.48-.96-.54-.21-.91-.43-1.12-.64.21-.21.48-.48.8-.8.32-.32.59-.69.8-1.13.21-.21.37-.53.48-.96.11-.43.48-.64,1.13-.64-.22-1.71.11-2.78.96-3.21.85,0,1.34.43,1.45,1.29.11.86.27,1.61.48,2.25.64,2.14.75,4.07.32,5.78-.43,1.72-.64,3.75-.64,6.11.21.43.16.7-.16.8-.32.11-.48.38-.48.8-.22.64-.22,1.07,0,1.29.21.22.32.64.32,1.29-.43.22-.75.64-.96,1.28-.22.64-.43,1.29-.64,1.93-.64,0-.91.38-.8,1.13.11.75-.27,1.13-1.13,1.13,0,.64.21.96.64.96s.53.43.32,1.29c0,.43-.11.75-.32.96-.22.22-.43.43-.64.64-.22.22-.43.48-.64.8-.22.32-.22.7,0,1.13-.43,0-.75.11-.96.32s-.38.43-.48.64c-.11.22-.22.43-.32.64-.11.22-.38.32-.8.32.21.22.1.43-.32.64v2.57c-.64,0-1.02.32-1.12.96-.11.64-.48,1.07-1.13,1.29-.22.43-.48.86-.8,1.29-.32.43-.59.96-.8,1.61-.86.43-1.5,1.02-1.93,1.77-.43.75-1.18,1.24-2.25,1.45-.21.43-.43.91-.64,1.45-.22.54-.54,1.02-.96,1.45-.22.43-.59.64-1.13.64s-.91.11-1.13.32c-.21.22-.38.32-.48.32-.11,0-.38.11-.8.32-.21.22-.38.32-.48.32-.11,0-.27.11-.48.32-.43.43-.96.8-1.61,1.13-.64.32-1.18.8-1.61,1.45-.64,0-.96.11-.96.32-1.07,0-1.82.06-2.25.16-.43.11-.96-.05-1.61-.48-.64.22-1.24.48-1.77.8-.54.32-1.13.59-1.77.8-1.29,0-2.25-.21-2.89-.64-.64-.43-1.61-.53-2.89-.32l-.32-.32c-.86.22-1.24.06-1.13-.48.11-.53-.16-.69-.8-.48-.43.22-.7.7-.8,1.45-.11.75-.06,1.34.16,1.77.43.22.75.22.96,0s.37-.43.48-.64c.11-.21.27-.37.48-.48.21-.11.53-.05.96.16.21.86.21,1.56,0,2.09-.21.54-.48,1.02-.8,1.45-.32.43-.59.86-.8,1.29-.22.43-.22,1.07,0,1.93-1.29.43-1.82,1.5-1.61,3.21.43.86,1.01,1.45,1.77,1.77.75.32,1.34.91,1.77,1.77.64.43,1.23.96,1.77,1.61.53.64,1.23,1.07,2.09,1.29,0,.64.05,1.13.16,1.45.1.32.27.59.48.8.64.22,1.23.38,1.77.48.53.11.91.38,1.13.8.85-.21,1.55-.21,2.09,0,.53.22,1.01.48,1.45.8.43.32.85.64,1.29.96.43.32.96.48,1.61.48.43,1.29.96,2.3,1.61,3.05.64.75,1.07,1.66,1.29,2.73v1.93c0,.43-.11.86-.32,1.29.64.43,1.93.64,3.86.64.21,0,.37.06.48.16.11.11.21.22.32.32.1.11.16.27.16.48s.1.32.32.32c.64-.21,1.01-.21,1.13,0,.1.22.37.32.8.32s.69-.11.8-.32c.11-.21.21-.43.32-.64.11-.21.21-.43.32-.64.1-.21.48-.21,1.12,0,.85,0,1.34.54,1.45,1.61.1,1.07-.06,1.82-.48,2.25-1.29,0-2.47-.32-3.54-.96-.43.43-.96.75-1.61.96-.64.22-1.4.43-2.25.64-.86-.21-1.5-.59-1.93-1.13-.43-.53-.86-1.13-1.29-1.77-.64,0-1.24-.05-1.77-.16-.54-.11-1.02-.27-1.45-.48-.22-.85-.43-1.66-.64-2.41-.22-.75-.64-1.45-1.29-2.09-.22-.43-.11-.64.32-.64s.75-.21.96-.64c0-.64-.27-1.01-.8-1.12-.54-.11-.8-.48-.8-1.13-.64.22-1.07.22-1.29,0-.22-.21-.75-.21-1.61,0,0,.22.05.38.16.48.1.11.32.22.64.32.32.11.59.22.8.32.21.11.21.27,0,.48.21.43.16.7-.16.8-.32.11-.59.27-.8.48s-.48.43-.8.64c-.32.22-.59.22-.8,0-.86.22-1.34.16-1.45-.16-.11-.32-.48-.59-1.13-.8h-2.89c-.22-.21-.43-.37-.64-.48-.21-.11-.21-.37,0-.8-1.29,0-2.41-.21-3.37-.64-.96-.43-1.82-.91-2.57-1.45-.75-.53-1.61-1.07-2.57-1.61-.96-.53-1.98-.8-3.05-.8-.43-.21-.8-.53-1.13-.96-.32-.43-.59-.85-.8-1.29-.43-.43-.96-.59-1.61-.48-.64.11-1.07-.05-1.29-.48-.43,0-.64-.21-.64-.64-.22-.21-.43-.32-.64-.32s-.32-.11-.32-.32h-3.21c0-.85-.43-1.29-1.29-1.29.21-.64.16-1.13-.16-1.45-.32-.32-.59-.8-.8-1.45-.86-.21-1.56-.11-2.09.32-.54.43-1.02.75-1.45.96h-4.18c-.21-.21-.48-.32-.8-.32h-.8c-.86-.85-1.88-1.5-3.05-1.93-1.18-.43-2.31-.96-3.38-1.61-.22-.21-.54-.37-.96-.48-.43-.11-.54-.48-.32-1.13-.86.22-1.56.38-2.09.48-.54.11-1.23.16-2.09.16-.43-1.07-.38-1.87.16-2.41s.8-1.23.8-2.09c-.22-.43-.59-.53-1.13-.32-.54.22-1.02.22-1.45,0-.64,0-.91.38-.8,1.13.11.75-.06,1.23-.48,1.45-1.93.22-3.75.11-5.46-.32,0-1.07-.21-1.98-.64-2.73-.43-.75-.91-1.34-1.45-1.77-.54-.43-1.18-.85-1.93-1.29-.75-.43-1.45-.96-2.09-1.61v-2.89c-.43-.43-.8-.96-1.13-1.61s-1.02-1.07-2.09-1.29c.21-.85,0-1.29-.64-1.29,0-.64-.11-1.07-.32-1.29-.22-1.5-.27-2.89-.16-4.18.11-1.29.27-2.57.48-3.86,1.71-.85,3.75-1.07,6.11-.64,2.36.43,4.71.54,7.07.32.43.22.75.43.96.64.64.43,1.5.75,2.57.96,1.07.22,2.25.32,3.53.32.64,0,1.13-.05,1.45-.16.32-.11.69-.16,1.13-.16.85,0,1.66.06,2.41.16.75.11,1.55.27,2.41.48,1.07,0,2.09-.11,3.05-.32.96-.21,1.98-.32,3.05-.32,1.93-.21,3.8-.27,5.62-.16,1.82.11,3.59.16,5.3.16.43-.43.8-.85,1.13-1.29.32-.43.59-.96.8-1.61.85-.43,1.71-.96,2.57-1.61.85-.64,1.82-1.18,2.89-1.61,1.5.64,2.84.75,4.02.32,1.18-.43,2.09-.96,2.73-1.61,1.5.22,2.73.64,3.7,1.29s1.98,1.18,3.05,1.61c.21.86.11,1.34-.32,1.45-.43.11-.54.48-.32,1.13.21.22.48.32.8.32h1.45c.43,0,.64-.32.64-.96v-1.93c.64-1.07,1.23-2.03,1.77-2.89.53-.85.91-2.03,1.13-3.53-.22-1.29-.54-2.41-.96-3.37-.43-.96-.64-2.19-.64-3.7.43-1.29,1.13-2.41,2.09-3.37.96-.96,2.3-1.66,4.02-2.09.85-.85,1.66-1.66,2.41-2.41.75-.75,1.34-1.66,1.77-2.73,1.29-.64,2.25-1.61,2.89-2.89.85-.21,1.61-.43,2.25-.64ZM998.61,186.4c-.22-.43-.59-.64-1.13-.64s-.8.32-.8.96c.21.22.59.32,1.13.32s.8-.21.8-.64ZM1011.79,122.45c.64.22.96,0,.96-.64s-.32-.85-.96-.64v1.29ZM1019.18,195.08v1.45c0,.32.21.48.64.48.21-.21.53-.32.96-.32.21-1.29-.32-1.82-1.61-1.61ZM1024.32,262.25c.43-.64.48-1.39.16-2.25-.32-.85-1.13-1.18-2.41-.96,0,1.07.32,1.61.96,1.61,0,.43.05.8.16,1.13.1.32.48.48,1.13.48ZM1035.57,64.6c0-.21.05-.53.16-.96.11-.43-.16-.53-.8-.32,0,.86.21,1.29.64,1.29ZM1036.85,51.74c0-.43.11-.64.32-.64,0-.43-.21-.53-.64-.32v.48c0,.11.1.27.32.48ZM1056.46,176.44c-1.72-.21-2.57.43-2.57,1.93.85,0,1.39-.21,1.61-.64.21-.43.53-.85.96-1.29ZM1057.74,78.74c.85.22,1.71.32,2.57.32s1.39-.43,1.61-1.29c-.43,0-.75-.05-.96-.16-.22-.11-.64-.05-1.29.16-.22-.43-.38-.85-.48-1.29-.11-.43-.59-.53-1.45-.32v2.57ZM1060.96,273.17c-.43,0-.96-.11-1.61-.32-.64-.21-1.07,0-1.29.64.64,0,1.29.22,1.93.64.64.43.96.11.96-.96ZM1066.1,77.13c.43-.43.32-.69-.32-.8-.64-.11-.86.06-.64.48.21,0,.32.11.32.32h.64ZM1079.28,219.83c.43-1.5.32-2.52-.32-3.05-.64-.53-1.28-1.01-1.93-1.45-.22.86-.75,1.24-1.61,1.12-.86-.11-1.72-.16-2.57-.16-.43.64-.96,1.07-1.61,1.29-.64.22-1.29.54-1.93.96v2.89c.85,0,1.55.16,2.09.48.53.32,1.13.38,1.77.16.85,0,1.55-.27,2.09-.8.53-.53,1.23-.91,2.09-1.13.43-.21.8-.27,1.13-.16.32.11.59.06.8-.16ZM1077.35,81.31c.21-.85.75-1.34,1.61-1.45.85-.11,1.29-.69,1.29-1.77,0-.43-.16-.75-.48-.96-.32-.21-.59-.53-.8-.96-2.57-.21-4.18.11-4.82.96-.86-.43-2.04-.64-3.54-.64-.22.86-.22,1.61,0,2.25.21.64.43,1.29.64,1.93h1.93c.64,0,.96.32.96.96.85-.21,1.93-.32,3.21-.32ZM1076.06,244.57c.85-.21,1.29-.59,1.29-1.13s-.11-1.07-.32-1.61c-.22-.53-.43-1.12-.64-1.77-.22-.64-.32-1.18-.32-1.61h-.96c0,1.07-.11,2.25-.32,3.54-.21,1.29.21,2.14,1.29,2.57ZM1079.6,281.53c.21.86.11,1.4-.32,1.61-.43.22-.54.75-.32,1.61-.64-.64-1.07-1.71-1.28-3.21.64-.64,1.28-.64,1.93,0ZM1078.63,172.26c-.43.64-.54,1.29-.32,1.93.64.22,1.07.11,1.29-.32.21-.43.16-.75-.16-.96-.32-.21-.59-.43-.8-.64ZM1079.28,115.05h-.96v.96h.96v-.96ZM1081.2,240.39c.85,0,1.29-.64,1.29-1.93h-1.29v1.93ZM1085.06,224.97c0-.64.05-1.34.16-2.09.11-.75-.05-1.23-.48-1.45h-1.61c-.22.43-.32.91-.32,1.45s-.11,1.13-.32,1.77c.21.22.59.32,1.13.32h1.45ZM1092.45,293.42c-.64-.21-1.02-.48-1.13-.8-.11-.32-.11-.59,0-.8.11-.21.32-.32.64-.32s.69.22,1.13.64c0,.43-.11.7-.32.8-.22.11-.32.27-.32.48ZM1092.77,191.86c-.43.22-.75.54-.96.96l.64-.32c.43,0,.53-.21.32-.64ZM1105.95,303.06c0,.21.16.32.48.32s.48.11.48.32c.43.43.69.91.8,1.45.1.53.37,1.01.8,1.45.43,2.35-.32,3.86-2.25,4.5h-.96c-.43-.86-.59-1.93-.48-3.21.11-1.29-.05-2.36-.48-3.21-.22-.43-.64-.75-1.29-.96-.64-.22-1.07-.64-1.29-1.29-.64-.43-1.13-.8-1.45-1.12-.32-.32-.91-.48-1.77-.48-.43.64-.48,1.18-.16,1.61.32.43.48.96.48,1.61.64.21.96.59.96,1.13s.32.8.96.8c-.43.21-.8.32-1.13.32s-.64-.11-.96-.32c-.32-.22-.7-.43-1.13-.64-.43-.22-.86-.32-1.29-.32-.22-.22-.38-.48-.48-.8-.11-.32-.48-.38-1.12-.16,0-.64-.11-1.02-.32-1.13-.21-.11-.54-.27-.96-.48,0-.43-.06-.8-.16-1.12-.11-.32-.27-.59-.48-.8,0-.43.16-.75.48-.96.32-.22.59-.43.8-.64.21-.64.32-1.39.32-2.25s.11-1.5.32-1.93h2.25c.43.43.85.86,1.29,1.29.43.43.75.96.96,1.61.85,0,1.5.22,1.93.64.43.43.85.85,1.29,1.29.64.43,1.17.85,1.61,1.29.43.43.96.64,1.61.64v.8c0,.32.11.59.32.8ZM1108.52,88.7c.21-.43.48-.8.8-1.13.32-.32.48-.69.48-1.12-.43-.43-.7-.85-.8-1.29-.11-.43-.16-.96-.16-1.61s-.05-1.23-.16-1.77c-.11-.53-.27-.91-.48-1.12-.43-.43-.75-.53-.96-.32-.21.22-.64.32-1.29.32-.21.43-.43.96-.64,1.61-.22.64-.11,1.29.32,1.93-.43.22-.75.32-.96.32s-.43.11-.64.32c.21,1.07.1,1.82-.32,2.25-.43.43-.75.96-.96,1.61.43.43.8.86,1.13,1.29.32.43.8.64,1.45.64.43-.21.53-.69.32-1.45-.22-.75-.11-1.13.32-1.13.64,0,1.07.16,1.29.48.21.32.64.38,1.29.16ZM1112.38,317.2c-.64-.22-1.02-.48-1.13-.8-.11-.32-.11-.59,0-.8.11-.22.32-.32.64-.32s.69.21,1.13.64c0,.43-.11.69-.32.8-.21.11-.32.27-.32.48ZM1111.41,119.55c0,1.93.85,2.68,2.57,2.25,0-1.5-.86-2.25-2.57-2.25ZM1130.7,329.42c-.21.85-.21,1.39,0,1.61.21.21.32.64.32,1.29-.64.43-1.12.59-1.45.48-.32-.11-.91-.27-1.77-.48.21-.86-.32-1.18-1.61-.96-.43-1.07-1.07-1.93-1.93-2.57-.86-.64-1.61-1.5-2.25-2.57-.43,0-.8-.16-1.13-.48-.32-.32-.8-.38-1.45-.16-.22-.43-.38-.75-.48-.96-.11-.22-.48-.22-1.13,0,0-.86-.27-1.34-.8-1.45-.54-.11-.8-.59-.8-1.45-.22-.22-.43-.43-.64-.64-.22-.22-.64-.32-1.29-.32.21-.64.1-1.07-.32-1.29-.43-.22-.54-.75-.32-1.61.21,0,.53.11.96.32.43.21.85.32,1.29.32s.8-.06,1.13-.16c.32-.11.48-.38.48-.8-.22-.43-.64-.64-1.29-.64s-1.07-.22-1.29-.64v-1.93h1.93c0,.43.16.69.48.8.32.11.37.48.16,1.13,1.5.64,2.68,1.82,3.54,3.53.43-.22.69-.16.8.16.11.32.48.37,1.13.16-.21.64-.11,1.01.32,1.12.43.11.85.27,1.29.48,0,.43.1.75.32.96s.43.43.64.64c-.21.43-.21.75,0,.96l.32.32c.43.64,1.01,1.17,1.77,1.61.75.43,1.13,1.07,1.13,1.93,0,.64.27.96.8.96s.91.11,1.13.32ZM1121.7,322.99c.21-.43.21-.8,0-1.13-.21-.32-.48-.54-.8-.64-.32-.11-.64-.11-.96,0-.32.11-.48.37-.48.8.21.43.96.75,2.25.96ZM1144.52,136.91c-.22-.64-.16-1.07.16-1.29.32-.21.48-.64.48-1.29-.86-.85-1.56-.91-2.09-.16-.54.75-.91,1.45-1.13,2.09.43.22.8.43,1.13.64.32.22.8.22,1.45,0Z"/>
    </g>
    <path class="cls-2" d="M172.79,301.25H0v32.87h105.64L7.87,374.02v88.5h98.62v13.49h61.25v-141.88h15.73v141.88h61.25v-141.88h10.68v-32.87h-82.6ZM106.48,423.47l-53.1-13.48,53.1-30.62v44.11ZM345.5,301.25h-86.53v75.58l86.53,17.42v-92.99ZM294.09,349.58l-4.5-16.01,12.36-9.55,12.64,3.65,1.4,23.88-21.91-1.97ZM258.97,387.51l89.62,22.2v64.06h-54.5v-32.03l-35.12-7.3v-46.92ZM1118.48,334.13h-10.68v141.88h-61.25v-115.47l-37.65-22.76v24.72h19.39v66.03h-52.82v-21.35l-11.8,21.35h-80.91v-81.2h36.24v34l24.72,12.36v-31.19l-30.06-28.38h-137.11v67.99l34.28-41.58,59,8.43v107.04h-61.25v-63.22l-39.34,34.56-53.94-11.24v-101.99h-15.73v135.98l9.27,11.52h17.42v31.47h-37.65l-50.29-26.13v-152.84h-15.73v141.88h-61.25v-141.88h-15.73v141.88h-61.25v-65.18l-19.1-17.98-11.52,1.12v15.17h-27.53l-5.06-18.54h-17.7v35.96h21.63l1.12-6.18h18.26v38.21h-87.1v-104.23l66.02-6.18,10.96,16.02,1.97-10.96,37.93-2.53,10.11,15.73v-32.31h-134.86v-32.87h603.49l22.48,15.17v-15.17h53.1l17.98,17.98v-17.98h30.98l40.94,32.87Z"/>
  </g>
</svg>